<svg width="301" height="400" viewBox="0 0 301 400" fill="none" xmlns="http://www.w3.org/2000/svg">
<path d="M145 116.5V257.5" stroke="black"/>
<path d="M25 9H276C287.046 9 296 17.9543 296 29V303.151C296 310.474 291.999 317.21 285.569 320.714L160.069 389.092C154.104 392.343 146.896 392.343 140.931 389.092L15.4311 320.714C9.00135 317.21 5 310.474 5 303.151V29C5 17.9543 13.9543 9 25 9Z" fill="#6199CE" stroke="#0C5F9C" stroke-width="10"/>
<mask id="mask0" mask-type="alpha" maskUnits="userSpaceOnUse" x="0" y="0" width="301" height="393">
<path d="M25 5H276C287.046 5 296 13.9543 296 25V299.151C296 306.474 291.999 313.21 285.569 316.714L160.069 385.092C154.104 388.343 146.896 388.343 140.931 385.092L15.4311 316.714C9.00135 313.21 5 306.474 5 299.151V25C5 13.9543 13.9543 5 25 5Z" fill="#6199CE" stroke="#0C5F9C" stroke-width="10"/>
</mask>
<g mask="url(#mask0)">
<rect x="-13" y="182" width="346" height="214" fill="#FFCE00"/>
</g>
<path d="M58.3926 69C59.3926 69 60.2259 68.8333 60.8926 68.5C61.5926 68.1333 62.1759 67.7167 62.6426 67.25C63.1426 66.75 63.5592 66.1667 63.8926 65.5L73.8926 66.5C73.3926 68.7333 72.4926 70.7333 71.1926 72.5C70.6259 73.2667 69.9592 74.0167 69.1926 74.75C68.4259 75.45 67.5259 76.0833 66.4926 76.65C65.4592 77.1833 64.2759 77.6333 62.9426 78C61.6092 78.3333 60.0926 78.5 58.3926 78.5C56.0926 78.5 53.9259 78.0833 51.8926 77.25C49.8926 76.3833 48.1426 75.2167 46.6426 73.75C45.1759 72.2833 44.0092 70.5667 43.1426 68.6C42.3092 66.6333 41.8926 64.5167 41.8926 62.25C41.8926 60.0167 42.3092 57.9167 43.1426 55.95C44.0092 53.95 45.1759 52.2167 46.6426 50.75C48.1426 49.2833 49.8926 48.1333 51.8926 47.3C53.9259 46.4333 56.0926 46 58.3926 46C60.0926 46 61.6092 46.1833 62.9426 46.55C64.2759 46.8833 65.4592 47.3333 66.4926 47.9C67.5259 48.4333 68.4259 49.0667 69.1926 49.8C69.9592 50.5333 70.6259 51.2667 71.1926 52C72.4926 53.7667 73.3926 55.7667 73.8926 58L63.8926 59C63.5592 58.3667 63.1426 57.7833 62.6426 57.25C62.1759 56.8167 61.5926 56.4167 60.8926 56.05C60.2259 55.6833 59.3926 55.5 58.3926 55.5C57.5259 55.5 56.6926 55.6833 55.8926 56.05C55.1259 56.3833 54.4426 56.8667 53.8426 57.5C53.2426 58.1 52.7592 58.8167 52.3926 59.65C52.0592 60.45 51.8926 61.3167 51.8926 62.25C51.8926 63.1833 52.0592 64.0667 52.3926 64.9C52.7592 65.7 53.2426 66.4167 53.8426 67.05C54.4426 67.65 55.1259 68.1333 55.8926 68.5C56.6926 68.8333 57.5259 69 58.3926 69ZM77.4141 78V46.5H87.4141V68.5H93.1641V46.5H103.164V68.5H108.914V46.5H118.914V78H77.4141ZM165.91 46.5V78H156.41L145.91 63V78H135.91V46.5H145.41L155.91 61.5V46.5H165.91ZM174.66 61.25C174.66 61.75 174.827 62.1667 175.16 62.5C175.493 62.8333 175.91 63 176.41 63C176.91 63 177.327 62.8333 177.66 62.5C177.993 62.1667 178.16 61.75 178.16 61.25C178.16 60.75 177.993 60.3333 177.66 60C177.327 59.6667 176.91 59.5 176.41 59.5C175.91 59.5 175.493 59.6667 175.16 60C174.827 60.3333 174.66 60.75 174.66 61.25ZM184.41 61.25C184.41 62.3167 184.193 63.3167 183.76 64.25C183.36 65.1833 182.793 66 182.06 66.7C181.36 67.4 180.527 67.9667 179.56 68.4C178.593 68.8 177.543 69 176.41 69C175.277 69 174.227 68.8 173.26 68.4C172.293 67.9667 171.443 67.4 170.71 66.7C170.01 66 169.443 65.1833 169.01 64.25C168.61 63.3167 168.41 62.3167 168.41 61.25C168.41 60.1833 168.61 59.1833 169.01 58.25C169.443 57.3167 170.01 56.5 170.71 55.8C171.443 55.1 172.293 54.55 173.26 54.15C174.227 53.7167 175.277 53.5 176.41 53.5C177.543 53.5 178.593 53.7167 179.56 54.15C180.527 54.55 181.36 55.1 182.06 55.8C182.793 56.5 183.36 57.3167 183.76 58.25C184.193 59.1833 184.41 60.1833 184.41 61.25ZM183.91 78H168.91V71H183.91V78ZM202.9 46.5V78H192.9V58L189.9 60L185.4 52.5L194.4 46.5H202.9ZM219.383 65.5C218.749 65.5 218.216 65.7333 217.783 66.2C217.349 66.6333 217.133 67.2333 217.133 68C217.133 68.7667 217.349 69.3833 217.783 69.85C218.216 70.2833 218.749 70.5 219.383 70.5C220.016 70.5 220.549 70.2833 220.983 69.85C221.416 69.3833 221.633 68.7667 221.633 68C221.633 67.2333 221.416 66.6333 220.983 66.2C220.549 65.7333 220.016 65.5 219.383 65.5ZM219.383 53.75C218.883 53.75 218.466 53.9333 218.133 54.3C217.799 54.6333 217.633 55.1167 217.633 55.75C217.633 56.3833 217.799 56.8833 218.133 57.25C218.466 57.5833 218.883 57.75 219.383 57.75C219.883 57.75 220.299 57.5833 220.633 57.25C220.966 56.8833 221.133 56.3833 221.133 55.75C221.133 55.1167 220.966 54.6333 220.633 54.3C220.299 53.9333 219.883 53.75 219.383 53.75ZM219.383 78.5C217.249 78.5 215.366 78.2333 213.733 77.7C212.133 77.1667 210.783 76.45 209.683 75.55C208.583 74.65 207.749 73.6 207.183 72.4C206.649 71.1667 206.383 69.8667 206.383 68.5C206.383 67.1 206.633 65.9333 207.133 65C207.666 64.0667 208.249 63.3 208.883 62.7C209.616 62 210.449 61.4333 211.383 61C210.683 60.5667 210.049 60.05 209.483 59.45C209.016 58.9167 208.583 58.2667 208.183 57.5C207.816 56.7333 207.633 55.8167 207.633 54.75C207.633 53.6167 207.883 52.5333 208.383 51.5C208.916 50.4333 209.683 49.5 210.683 48.7C211.683 47.8667 212.916 47.2167 214.383 46.75C215.849 46.25 217.516 46 219.383 46C221.249 46 222.916 46.25 224.383 46.75C225.849 47.2167 227.083 47.8667 228.083 48.7C229.083 49.5 229.833 50.4333 230.333 51.5C230.866 52.5333 231.133 53.6167 231.133 54.75C231.133 55.8167 230.933 56.7333 230.533 57.5C230.133 58.2667 229.699 58.9167 229.233 59.45C228.666 60.05 228.049 60.5667 227.383 61C228.316 61.4333 229.149 62 229.883 62.7C230.516 63.3 231.083 64.0667 231.583 65C232.116 65.9333 232.383 67.1 232.383 68.5C232.383 69.8667 232.099 71.1667 231.533 72.4C230.999 73.6 230.183 74.65 229.083 75.55C227.983 76.45 226.616 77.1667 224.983 77.7C223.383 78.2333 221.516 78.5 219.383 78.5ZM249.611 56.5C250.978 56.5 252.261 56.7667 253.461 57.3C254.695 57.8333 255.761 58.5833 256.661 59.55C257.561 60.4833 258.278 61.6167 258.811 62.95C259.345 64.25 259.611 65.6833 259.611 67.25C259.611 68.8833 259.311 70.3833 258.711 71.75C258.145 73.1167 257.328 74.3 256.261 75.3C255.195 76.3 253.878 77.0833 252.311 77.65C250.778 78.2167 249.045 78.5 247.111 78.5C245.178 78.5 243.428 78.2333 241.861 77.7C240.328 77.1333 239.011 76.4 237.911 75.5C236.811 74.5667 235.961 73.5 235.361 72.3C234.761 71.0667 234.428 69.8 234.361 68.5L244.361 67.5C244.461 67.8667 244.611 68.2 244.811 68.5C244.978 68.7667 245.195 69 245.461 69.2C245.761 69.4 246.145 69.5 246.611 69.5C247.245 69.5 247.778 69.2667 248.211 68.8C248.645 68.3 248.861 67.6167 248.861 66.75C248.861 65.8833 248.645 65.2167 248.211 64.75C247.778 64.25 247.245 64 246.611 64C246.245 64 245.911 64.0833 245.611 64.25C245.311 64.4167 245.078 64.5833 244.911 64.75C244.678 64.9833 244.495 65.2333 244.361 65.5H235.111L237.361 46.5H257.361V54.5H245.611L245.111 57.5C245.445 57.3 245.845 57.1333 246.311 57C246.711 56.8667 247.178 56.75 247.711 56.65C248.278 56.55 248.911 56.5 249.611 56.5Z" fill="white"/>
<path d="M116.874 345.125L119.499 339.5H124.249V351H119.749V346.125L117.499 351H116.249L113.999 346.125V351H109.499V339.5H114.249L116.874 345.125ZM125.997 348.875C125.997 348.175 126.213 347.608 126.647 347.175C127.097 346.725 127.672 346.5 128.372 346.5C129.072 346.5 129.638 346.725 130.072 347.175C130.522 347.608 130.747 348.175 130.747 348.875C130.747 349.575 130.522 350.15 130.072 350.6C129.638 351.033 129.072 351.25 128.372 351.25C127.672 351.25 127.097 351.033 126.647 350.6C126.213 350.15 125.997 349.575 125.997 348.875ZM147.627 351L143.752 344.25V351H138.752V335.25H143.752V341.875L147.127 335.25H152.752L148.252 343L153.252 351H147.627ZM154.005 351V339.5H158.505V344.625L162.005 339.5H165.88V351H161.38V345.875L157.88 351H154.005ZM172.623 351H168.123V339.5H172.623V351ZM174.998 336.375C174.998 336.658 174.939 336.933 174.823 337.2C174.706 337.45 174.548 337.675 174.348 337.875C174.164 338.058 173.939 338.208 173.673 338.325C173.423 338.442 173.156 338.5 172.873 338.5C172.589 338.5 172.314 338.442 172.048 338.325C171.798 338.208 171.573 338.058 171.373 337.875C171.189 337.675 171.039 337.45 170.923 337.2C170.806 336.933 170.748 336.658 170.748 336.375C170.748 336.092 170.806 335.825 170.923 335.575C171.039 335.308 171.189 335.083 171.373 334.9C171.573 334.7 171.798 334.542 172.048 334.425C172.314 334.308 172.589 334.25 172.873 334.25C173.156 334.25 173.423 334.308 173.673 334.425C173.939 334.542 174.164 334.7 174.348 334.9C174.548 335.083 174.706 335.308 174.823 335.575C174.939 335.825 174.998 336.092 174.998 336.375ZM169.998 336.375C169.998 336.658 169.939 336.933 169.823 337.2C169.706 337.45 169.548 337.675 169.348 337.875C169.164 338.058 168.939 338.208 168.673 338.325C168.423 338.442 168.156 338.5 167.873 338.5C167.589 338.5 167.314 338.442 167.048 338.325C166.798 338.208 166.581 338.058 166.398 337.875C166.198 337.675 166.039 337.45 165.923 337.2C165.806 336.933 165.748 336.658 165.748 336.375C165.748 336.092 165.806 335.825 165.923 335.575C166.039 335.308 166.198 335.083 166.398 334.9C166.581 334.7 166.798 334.542 167.048 334.425C167.314 334.308 167.589 334.25 167.873 334.25C168.156 334.25 168.423 334.308 168.673 334.425C168.939 334.542 169.164 334.7 169.348 334.9C169.548 335.083 169.706 335.308 169.823 335.575C169.939 335.825 169.998 336.092 169.998 336.375ZM184.129 345C184.463 345.133 184.771 345.325 185.054 345.575C185.288 345.792 185.504 346.075 185.704 346.425C185.904 346.775 186.004 347.217 186.004 347.75C186.004 348.183 185.913 348.6 185.729 349C185.546 349.383 185.279 349.725 184.929 350.025C184.579 350.325 184.146 350.567 183.629 350.75C183.113 350.917 182.529 351 181.879 351H174.879V339.5H181.629C182.246 339.5 182.804 339.592 183.304 339.775C183.804 339.942 184.221 340.167 184.554 340.45C184.904 340.733 185.171 341.067 185.354 341.45C185.538 341.833 185.629 342.225 185.629 342.625C185.629 343.058 185.546 343.433 185.379 343.75C185.229 344.05 185.063 344.292 184.879 344.475C184.663 344.692 184.413 344.867 184.129 345ZM179.379 342.5V343.75H180.254C180.754 343.75 181.004 343.542 181.004 343.125C181.004 342.708 180.754 342.5 180.254 342.5H179.379ZM180.504 348C180.821 348 181.046 347.925 181.179 347.775C181.313 347.608 181.379 347.433 181.379 347.25C181.379 347.067 181.313 346.9 181.179 346.75C181.046 346.583 180.821 346.5 180.504 346.5H179.379V348H180.504Z" fill="black"/>
<path d="M55.9644 104H54.7632V94.5518H55.9644V104ZM66.394 94.5518H67.3682V104H66.167V97.6279L63.2373 104H62.4902L59.5679 97.6279V104H58.3667V94.5518H59.3408L62.8638 102.125L66.394 94.5518ZM69.0894 103.326C69.0894 103.097 69.1553 102.914 69.2871 102.777C69.4238 102.64 69.6069 102.572 69.8364 102.572C70.0659 102.572 70.2466 102.64 70.3784 102.777C70.5151 102.914 70.5835 103.097 70.5835 103.326C70.5835 103.556 70.5151 103.739 70.3784 103.875C70.2466 104.007 70.0659 104.073 69.8364 104.073C69.6069 104.073 69.4238 104.007 69.2871 103.875C69.1553 103.739 69.0894 103.556 69.0894 103.326ZM80.7056 98.9756C80.9644 99.1074 81.2012 99.2783 81.416 99.4883C81.5967 99.6689 81.7603 99.9082 81.9067 100.206C82.0581 100.504 82.1338 100.868 82.1338 101.297C82.1338 101.649 82.0581 101.988 81.9067 102.315C81.7554 102.643 81.5454 102.928 81.2769 103.172C81.0083 103.421 80.6909 103.622 80.3247 103.773C79.9585 103.924 79.5605 104 79.1309 104H75.5347V94.5518H79.0576C79.4482 94.5518 79.8096 94.6152 80.1416 94.7422C80.4736 94.874 80.7568 95.0547 80.9912 95.2842C81.2305 95.5137 81.4185 95.7847 81.5552 96.0972C81.6919 96.4048 81.7603 96.7393 81.7603 97.1006C81.7603 97.4424 81.7041 97.7305 81.5918 97.9648C81.4795 98.1992 81.3599 98.3921 81.2329 98.5435C81.0718 98.7192 80.896 98.8633 80.7056 98.9756ZM76.7358 98.5215H79.0576C79.2773 98.5215 79.4849 98.4824 79.6802 98.4043C79.8755 98.3262 80.0439 98.2212 80.1855 98.0894C80.3271 97.9575 80.437 97.8086 80.5151 97.6426C80.5933 97.4717 80.6323 97.291 80.6323 97.1006C80.6323 96.8906 80.5933 96.6953 80.5151 96.5146C80.437 96.334 80.3271 96.1777 80.1855 96.0459C80.0439 95.9092 79.8755 95.8018 79.6802 95.7236C79.4849 95.6455 79.2773 95.604 79.0576 95.5991H76.7358V98.5215ZM79.1309 102.953C79.6631 102.953 80.0977 102.787 80.4346 102.455C80.7715 102.123 80.9375 101.712 80.9326 101.224C80.9326 101.004 80.8887 100.794 80.8008 100.594C80.7129 100.394 80.5859 100.218 80.4199 100.067C80.2588 99.9155 80.0708 99.7959 79.856 99.708C79.6362 99.6201 79.3945 99.5762 79.1309 99.5762H76.7358V102.953H79.1309ZM83.2544 103.326C83.2544 103.097 83.3203 102.914 83.4521 102.777C83.5889 102.64 83.772 102.572 84.0015 102.572C84.231 102.572 84.4116 102.64 84.5435 102.777C84.6802 102.914 84.7485 103.097 84.7485 103.326C84.7485 103.556 84.6802 103.739 84.5435 103.875C84.4116 104.007 84.231 104.073 84.0015 104.073C83.772 104.073 83.5889 104.007 83.4521 103.875C83.3203 103.739 83.2544 103.556 83.2544 103.326ZM94.8706 98.9756C95.1294 99.1074 95.3662 99.2783 95.5811 99.4883C95.7617 99.6689 95.9253 99.9082 96.0718 100.206C96.2231 100.504 96.2988 100.868 96.2988 101.297C96.2988 101.649 96.2231 101.988 96.0718 102.315C95.9204 102.643 95.7104 102.928 95.4419 103.172C95.1733 103.421 94.856 103.622 94.4897 103.773C94.1235 103.924 93.7256 104 93.2959 104H89.6997V94.5518H93.2227C93.6133 94.5518 93.9746 94.6152 94.3066 94.7422C94.6387 94.874 94.9219 95.0547 95.1562 95.2842C95.3955 95.5137 95.5835 95.7847 95.7202 96.0972C95.8569 96.4048 95.9253 96.7393 95.9253 97.1006C95.9253 97.4424 95.8691 97.7305 95.7568 97.9648C95.6445 98.1992 95.5249 98.3921 95.3979 98.5435C95.2368 98.7192 95.061 98.8633 94.8706 98.9756ZM90.9009 98.5215H93.2227C93.4424 98.5215 93.6499 98.4824 93.8452 98.4043C94.0405 98.3262 94.209 98.2212 94.3506 98.0894C94.4922 97.9575 94.6021 97.8086 94.6802 97.6426C94.7583 97.4717 94.7974 97.291 94.7974 97.1006C94.7974 96.8906 94.7583 96.6953 94.6802 96.5146C94.6021 96.334 94.4922 96.1777 94.3506 96.0459C94.209 95.9092 94.0405 95.8018 93.8452 95.7236C93.6499 95.6455 93.4424 95.604 93.2227 95.5991H90.9009V98.5215ZM93.2959 102.953C93.8281 102.953 94.2627 102.787 94.5996 102.455C94.9365 102.123 95.1025 101.712 95.0977 101.224C95.0977 101.004 95.0537 100.794 94.9658 100.594C94.8779 100.394 94.751 100.218 94.585 100.067C94.4238 99.9155 94.2358 99.7959 94.021 99.708C93.8013 99.6201 93.5596 99.5762 93.2959 99.5762H90.9009V102.953H93.2959ZM104.246 102.953V104H98.0933V94.5518H104.092V95.5991H99.2944V98.6021H103.718V99.6494H99.2944V102.953H104.246ZM109.417 94.5518C109.827 94.5518 110.215 94.6299 110.581 94.7861C110.947 94.9424 111.265 95.1548 111.533 95.4233C111.802 95.6919 112.017 96.0044 112.178 96.3608C112.339 96.7173 112.419 97.0884 112.419 97.4741C112.419 97.8647 112.339 98.2383 112.178 98.5947C112.017 98.9512 111.802 99.2637 111.533 99.5322C111.265 99.8008 110.947 100.013 110.581 100.169C110.215 100.326 109.827 100.401 109.417 100.396H107.395V104H106.194V94.5518H109.417ZM109.417 99.3491C109.656 99.3491 109.885 99.3027 110.105 99.21C110.325 99.1172 110.518 98.9829 110.684 98.8071C110.85 98.6362 110.979 98.436 111.072 98.2065C111.165 97.9771 111.213 97.7329 111.218 97.4741C111.218 97.2153 111.169 96.9712 111.072 96.7417C110.979 96.5122 110.85 96.312 110.684 96.1411C110.518 95.9702 110.325 95.8384 110.105 95.7456C109.885 95.6528 109.656 95.604 109.417 95.5991H107.395V99.3491H109.417ZM121.194 94.5518V104H119.993V99.7227H115.422V104H114.221V94.5518H115.422V98.6753H119.993V94.5518H121.194ZM128.467 101.678H124.57L123.669 104H122.395L125.999 94.5518H127.046L130.642 104H129.368L128.467 101.678ZM124.944 100.624H128.093L126.519 96.5L124.944 100.624ZM139.417 102.953V105.948H138.289V104H131.77V105.948H130.642V102.953H131.169C131.34 102.821 131.494 102.665 131.631 102.484C131.753 102.323 131.87 102.127 131.982 101.898C132.1 101.668 132.178 101.395 132.217 101.078L132.964 94.5518H138.369V102.953H139.417ZM137.168 95.5991H134.062L133.418 101.078C133.379 101.4 133.315 101.676 133.228 101.905C133.145 102.13 133.062 102.323 132.979 102.484C132.881 102.665 132.776 102.821 132.664 102.953H137.168V95.5991ZM144.602 95.5259C144.192 95.5259 143.792 95.6187 143.401 95.8042C143.01 95.9897 142.666 96.2485 142.368 96.5806C142.07 96.9175 141.831 97.3154 141.65 97.7744C141.47 98.2334 141.379 98.7339 141.379 99.2759C141.379 99.8179 141.47 100.318 141.65 100.777C141.831 101.236 142.07 101.632 142.368 101.964C142.666 102.301 143.01 102.562 143.401 102.748C143.792 102.933 144.192 103.026 144.602 103.026C144.973 103.026 145.312 102.967 145.62 102.85C145.928 102.733 146.201 102.579 146.44 102.389C146.675 102.193 146.87 101.964 147.026 101.7C147.183 101.437 147.3 101.153 147.378 100.851H148.652C148.521 101.3 148.335 101.72 148.096 102.11C147.856 102.501 147.563 102.843 147.217 103.136C146.87 103.429 146.479 103.658 146.045 103.824C145.605 103.99 145.125 104.073 144.602 104.073C144.021 104.073 143.464 103.951 142.932 103.707C142.395 103.463 141.924 103.124 141.519 102.689C141.113 102.254 140.789 101.747 140.544 101.166C140.3 100.584 140.178 99.9546 140.178 99.2759C140.178 98.6069 140.3 97.9795 140.544 97.3936C140.789 96.8076 141.113 96.2974 141.519 95.8628C141.924 95.4282 142.395 95.0889 142.932 94.8447C143.469 94.6006 144.026 94.4785 144.602 94.4785C145.11 94.4785 145.579 94.5591 146.008 94.7202C146.433 94.8862 146.814 95.1182 147.151 95.416C147.493 95.709 147.783 96.0508 148.022 96.4414C148.262 96.832 148.447 97.252 148.579 97.7012H147.305C147.227 97.4033 147.109 97.1201 146.953 96.8516C146.797 96.5879 146.604 96.3584 146.375 96.1631C146.145 95.9678 145.881 95.8115 145.583 95.6943C145.291 95.582 144.963 95.5259 144.602 95.5259ZM150.3 104V94.5518H151.501V98.1479H153.596C154.006 98.1479 154.395 98.2261 154.761 98.3823C155.127 98.5386 155.444 98.751 155.713 99.0195C155.981 99.2881 156.196 99.6006 156.357 99.957C156.519 100.313 156.599 100.687 156.599 101.078C156.599 101.468 156.519 101.842 156.357 102.198C156.196 102.55 155.981 102.862 155.713 103.136C155.444 103.404 155.127 103.617 154.761 103.773C154.395 103.924 154.006 104 153.596 104H150.3ZM151.501 99.2026V102.953H153.596C153.835 102.953 154.065 102.906 154.285 102.813C154.509 102.716 154.702 102.582 154.863 102.411C155.029 102.24 155.159 102.04 155.251 101.81C155.349 101.581 155.398 101.336 155.398 101.078C155.398 100.819 155.349 100.575 155.251 100.345C155.159 100.111 155.029 99.9106 154.863 99.7446C154.702 99.5737 154.512 99.4419 154.292 99.3491C154.072 99.2515 153.84 99.2026 153.596 99.2026H151.501ZM159.456 104H158.254V94.5518H159.456V104ZM159.456 99.2026L163.125 94.5518H164.553L160.803 99.2026L164.854 104H163.425L159.456 99.2026ZM166.194 99.2759C166.194 99.8179 166.282 100.318 166.458 100.777C166.638 101.236 166.88 101.632 167.183 101.964C167.48 102.301 167.825 102.562 168.215 102.748C168.606 102.933 169.006 103.026 169.417 103.026C169.827 103.026 170.227 102.933 170.618 102.748C171.008 102.562 171.353 102.301 171.65 101.964C171.948 101.627 172.188 101.231 172.368 100.777C172.549 100.318 172.639 99.8179 172.639 99.2759C172.639 98.7339 172.549 98.2334 172.368 97.7744C172.188 97.3154 171.948 96.9175 171.65 96.5806C171.353 96.2437 171.008 95.9849 170.618 95.8042C170.227 95.6187 169.827 95.5259 169.417 95.5259C169.006 95.5259 168.606 95.6187 168.215 95.8042C167.825 95.9897 167.48 96.2485 167.183 96.5806C166.885 96.9175 166.643 97.3154 166.458 97.7744C166.282 98.2334 166.194 98.7339 166.194 99.2759ZM173.84 99.2759C173.84 99.9546 173.718 100.584 173.474 101.166C173.23 101.747 172.905 102.254 172.5 102.689C172.095 103.124 171.624 103.463 171.086 103.707C170.549 103.951 169.993 104.073 169.417 104.073C168.835 104.073 168.276 103.951 167.739 103.707C167.202 103.463 166.733 103.124 166.333 102.689C165.928 102.254 165.603 101.747 165.359 101.166C165.115 100.584 164.993 99.9546 164.993 99.2759C164.993 98.6069 165.115 97.9795 165.359 97.3936C165.603 96.8076 165.928 96.2974 166.333 95.8628C166.738 95.4282 167.207 95.0889 167.739 94.8447C168.276 94.6006 168.835 94.4785 169.417 94.4785C169.998 94.4785 170.554 94.6006 171.086 94.8447C171.624 95.0889 172.095 95.4282 172.5 95.8628C172.905 96.2974 173.23 96.8076 173.474 97.3936C173.718 97.9795 173.84 98.6069 173.84 99.2759ZM176.77 95.5991V104H175.569V94.5518H180.967V95.5991H176.77ZM182.542 99.2759C182.542 99.8179 182.629 100.318 182.805 100.777C182.986 101.236 183.228 101.632 183.53 101.964C183.828 102.301 184.172 102.562 184.563 102.748C184.954 102.933 185.354 103.026 185.764 103.026C186.174 103.026 186.575 102.933 186.965 102.748C187.356 102.562 187.7 102.301 187.998 101.964C188.296 101.627 188.535 101.231 188.716 100.777C188.896 100.318 188.987 99.8179 188.987 99.2759C188.987 98.7339 188.896 98.2334 188.716 97.7744C188.535 97.3154 188.296 96.9175 187.998 96.5806C187.7 96.2437 187.356 95.9849 186.965 95.8042C186.575 95.6187 186.174 95.5259 185.764 95.5259C185.354 95.5259 184.954 95.6187 184.563 95.8042C184.172 95.9897 183.828 96.2485 183.53 96.5806C183.232 96.9175 182.991 97.3154 182.805 97.7744C182.629 98.2334 182.542 98.7339 182.542 99.2759ZM190.188 99.2759C190.188 99.9546 190.066 100.584 189.822 101.166C189.578 101.747 189.253 102.254 188.848 102.689C188.442 103.124 187.971 103.463 187.434 103.707C186.897 103.951 186.34 104.073 185.764 104.073C185.183 104.073 184.624 103.951 184.087 103.707C183.55 103.463 183.081 103.124 182.681 102.689C182.275 102.254 181.951 101.747 181.707 101.166C181.462 100.584 181.34 99.9546 181.34 99.2759C181.34 98.6069 181.462 97.9795 181.707 97.3936C181.951 96.8076 182.275 96.2974 182.681 95.8628C183.086 95.4282 183.555 95.0889 184.087 94.8447C184.624 94.6006 185.183 94.4785 185.764 94.4785C186.345 94.4785 186.902 94.6006 187.434 94.8447C187.971 95.0889 188.442 95.4282 188.848 95.8628C189.253 96.2974 189.578 96.8076 189.822 97.3936C190.066 97.9795 190.188 98.6069 190.188 99.2759ZM191.99 104.073C191.76 104.073 191.577 104.007 191.44 103.875C191.309 103.739 191.243 103.556 191.243 103.326C191.243 103.097 191.309 102.914 191.44 102.777C191.577 102.64 191.76 102.572 191.99 102.572C192.219 102.572 192.4 102.64 192.532 102.777C192.668 102.914 192.737 103.097 192.737 103.326C192.737 103.688 192.673 104 192.546 104.264C192.424 104.527 192.29 104.745 192.144 104.916C191.963 105.116 191.763 105.287 191.543 105.428L191.389 105.201C191.487 105.104 191.577 104.999 191.66 104.886C191.729 104.789 191.794 104.671 191.858 104.535C191.926 104.398 191.97 104.244 191.99 104.073ZM197.087 99.1221C197.087 98.6143 197.18 98.1455 197.366 97.7158C197.551 97.2861 197.82 96.9102 198.171 96.5879C198.528 96.2607 198.965 95.9995 199.482 95.8042C200.005 95.6089 200.605 95.4917 201.284 95.4526V94.5518H202.485V95.4526C203.154 95.4917 203.75 95.6089 204.272 95.8042C204.8 95.9995 205.242 96.2607 205.598 96.5879C205.955 96.9102 206.226 97.2861 206.411 97.7158C206.597 98.1455 206.689 98.6143 206.689 99.1221C206.689 99.6299 206.597 100.101 206.411 100.536C206.226 100.965 205.955 101.344 205.598 101.671C205.242 101.993 204.8 102.252 204.272 102.447C203.75 102.643 203.154 102.76 202.485 102.799V104.073H201.284V102.799C200.605 102.76 200.005 102.643 199.482 102.447C198.965 102.252 198.528 101.993 198.171 101.671C197.82 101.344 197.551 100.965 197.366 100.536C197.18 100.101 197.087 99.6299 197.087 99.1221ZM201.284 96.5C200.815 96.5195 200.396 96.6001 200.024 96.7417C199.658 96.8784 199.343 97.0664 199.08 97.3057C198.821 97.54 198.623 97.8135 198.486 98.126C198.354 98.4336 198.289 98.7656 198.289 99.1221C198.289 99.4834 198.354 99.8203 198.486 100.133C198.623 100.44 198.821 100.711 199.08 100.946C199.343 101.18 199.658 101.368 200.024 101.51C200.396 101.651 200.815 101.732 201.284 101.751V96.5ZM202.485 101.751C202.954 101.732 203.374 101.651 203.745 101.51C204.116 101.368 204.431 101.18 204.69 100.946C204.954 100.711 205.151 100.44 205.283 100.133C205.42 99.8203 205.488 99.4834 205.488 99.1221C205.488 98.7607 205.42 98.4263 205.283 98.1187C205.151 97.811 204.954 97.54 204.69 97.3057C204.431 97.0664 204.116 96.8784 203.745 96.7417C203.374 96.6001 202.954 96.5195 202.485 96.5V101.751ZM209.685 104H208.484V94.5518H209.685V104ZM211.414 97.1006C211.453 96.7295 211.548 96.3828 211.699 96.0605C211.855 95.7334 212.061 95.4551 212.314 95.2256C212.573 94.9961 212.878 94.8154 213.23 94.6836C213.586 94.5469 213.979 94.4785 214.409 94.4785C214.839 94.4785 215.234 94.5493 215.596 94.6909C215.957 94.8276 216.265 95.0156 216.519 95.2549C216.772 95.4941 216.973 95.7725 217.119 96.0898C217.266 96.4023 217.339 96.7393 217.339 97.1006C217.339 97.4424 217.271 97.7354 217.134 97.9795C216.997 98.2236 216.851 98.4263 216.694 98.5874C216.514 98.7681 216.304 98.9219 216.064 99.0488C216.353 99.1807 216.611 99.3516 216.841 99.5615C217.041 99.7422 217.224 99.9839 217.39 100.287C217.556 100.584 217.639 100.948 217.639 101.378C217.639 101.739 217.563 102.081 217.412 102.403C217.261 102.726 217.043 103.011 216.76 103.26C216.482 103.504 216.15 103.702 215.764 103.854C215.383 104 214.958 104.073 214.49 104.073C214.021 104.073 213.599 104.007 213.223 103.875C212.847 103.739 212.522 103.556 212.249 103.326C211.98 103.097 211.763 102.823 211.597 102.506C211.431 102.184 211.318 101.832 211.26 101.451H212.461C212.539 101.9 212.747 102.276 213.083 102.579C213.42 102.877 213.889 103.026 214.49 103.026C215.09 103.026 215.564 102.865 215.911 102.542C216.262 102.215 216.438 101.827 216.438 101.378C216.438 100.929 216.262 100.541 215.911 100.213C215.559 99.8862 215.085 99.7227 214.49 99.7227H213.794V98.6753H214.409C214.941 98.6753 215.361 98.5264 215.669 98.2285C215.981 97.9258 216.138 97.5498 216.138 97.1006C216.138 96.6514 215.981 96.2778 215.669 95.98C215.361 95.6772 214.941 95.5259 214.409 95.5259C213.877 95.5259 213.455 95.6772 213.142 95.98C212.83 96.2778 212.654 96.6514 212.615 97.1006H211.414ZM222.891 100.624H218.767V99.6494H222.891V100.624ZM232.639 94.5518H233.613V104H232.412V97.6279L229.482 104H228.735L225.813 97.6279V104H224.612V94.5518H225.586L229.109 102.125L232.639 94.5518ZM240.879 101.678H236.982L236.082 104H234.807L238.411 94.5518H239.458L243.054 104H241.78L240.879 101.678ZM237.356 100.624H240.505L238.931 96.5L237.356 100.624ZM249.434 95.5991H246.584V104H245.383V95.5991H242.534V94.5518H249.434V95.5991Z" fill="white"/>
<path d="M68 222.207V308.131C68 308.139 68.0003 308.145 68.0007 308.149C68.0095 308.162 68.0413 308.202 68.111 308.243C68.1871 308.287 68.2656 308.308 68.3255 308.311C68.3721 308.313 68.4134 308.306 68.4696 308.277C75.5573 304.624 86.8398 299.426 96.4004 298.094C105.136 296.876 115.023 298.495 123.817 300.85C132.703 303.229 140.949 306.494 146.577 308.95C146.63 308.973 146.668 308.977 146.71 308.973C146.764 308.968 146.833 308.947 146.899 308.906C146.964 308.864 146.992 308.824 146.998 308.814L68 222.207ZM68 222.207C70.7945 220.635 75.6725 218.016 81.1807 215.602C86.8364 213.124 92.8228 211.011 97.7809 210.32C105.752 209.209 115.86 211.109 125.413 214.033C134.72 216.881 142.903 220.51 147 222.445V308.792C147 308.802 146.999 308.809 146.999 308.812L68 222.207Z" stroke="black" stroke-width="10"/>
<path d="M224 222.207V308.131C224 308.139 224 308.145 223.999 308.149C223.991 308.162 223.959 308.202 223.889 308.243C223.813 308.287 223.734 308.308 223.675 308.311C223.628 308.313 223.587 308.306 223.53 308.277C216.443 304.624 205.16 299.426 195.6 298.094C186.864 296.876 176.977 298.495 168.183 300.85C159.297 303.229 151.051 306.494 145.423 308.95C145.37 308.973 145.332 308.977 145.29 308.973C145.236 308.968 145.167 308.947 145.101 308.906C145.036 308.864 145.008 308.824 145.002 308.814L224 222.207ZM224 222.207C221.206 220.635 216.327 218.016 210.819 215.602C205.164 213.124 199.177 211.011 194.219 210.32C186.248 209.209 176.14 211.109 166.587 214.033C157.28 216.881 149.097 220.51 145 222.445V308.792C145 308.802 145.001 308.809 145.001 308.812L224 222.207Z" stroke="black" stroke-width="10"/>
<path d="M147.5 258C191.268 258 228 227.079 228 187.5C228 147.921 191.268 117 147.5 117C103.732 117 67 147.921 67 187.5C67 227.079 103.732 258 147.5 258Z" fill="white" stroke="black" stroke-width="10"/>
<path d="M147 119.5V253.5" stroke="black" stroke-width="10"/>
<path d="M71 187L223 186" stroke="black" stroke-width="10"/>
<path d="M75.0001 154C75.0001 154 118.801 159.693 147 159.5C175.232 159.307 219 153 219 153" stroke="black" stroke-width="10"/>
<path d="M219.042 226C219.042 226 175.241 220.307 147.042 220.5C118.81 220.693 75.0417 227 75.0417 227" stroke="black" stroke-width="10"/>
<path d="M25 9H276C287.046 9 296 17.9543 296 29V303.151C296 310.474 291.999 317.21 285.569 320.714L160.069 389.092C154.104 392.343 146.896 392.343 140.931 389.092L15.4311 320.714C9.00135 317.21 5 310.474 5 303.151V29C5 17.9543 13.9543 9 25 9Z" stroke="#0C5F9C" stroke-width="10"/>
<path d="M118 121C118 121 105 160.046 105 186C105 211.954 118 251 118 251" stroke="black" stroke-width="10"/>
<path d="M181 121C181 121 194 160.046 194 186C194 211.954 181 251 181 251" stroke="black" stroke-width="10"/>
<path d="M94 185.137V174.522C94 173.417 94.8954 172.522 96 172.522H128.909C131.189 172.522 131.692 175.725 129.523 176.425L96.614 187.041C95.3226 187.457 94 186.494 94 185.137Z" fill="#009C00" stroke="#009C00" stroke-width="2"/>
<path d="M100.165 195.709L131.445 182.146C133.476 181.265 135.221 183.847 133.646 185.403L109.841 208.932C108.978 209.784 107.562 209.679 106.835 208.71L99.3608 198.744C98.5853 197.71 98.9794 196.224 100.165 195.709Z" fill="#009C00" stroke="#009C00" stroke-width="2"/>
<path d="M129.138 151.71C129.907 150.377 131.832 150.377 132.602 151.71L138.45 161.841C139.22 163.174 138.258 164.841 136.718 164.841H125.021C123.481 164.841 122.519 163.174 123.289 161.841L129.138 151.71Z" fill="#009C00" stroke="#009C00" stroke-width="2"/>
<path d="M126.849 224.949L146.199 180.816C146.917 179.18 149.256 179.233 149.898 180.901L166.888 225.077C167.172 225.814 166.995 226.65 166.436 227.209L149.477 244.168C148.732 244.913 147.536 244.952 146.744 244.257L127.362 227.255C126.706 226.681 126.499 225.747 126.849 224.949Z" fill="#009C00" stroke="#009C00" stroke-width="2"/>
<path d="M145.268 132.507C146.038 131.174 147.962 131.174 148.732 132.507L154.581 142.638C155.351 143.971 154.388 145.638 152.849 145.638H141.151C139.612 145.638 138.649 143.971 139.419 142.638L145.268 132.507Z" fill="#009C00" stroke="#009C00" stroke-width="2"/>
<path d="M145.268 151.71C146.038 150.377 147.962 150.377 148.732 151.71L154.581 161.841C155.351 163.174 154.388 164.841 152.849 164.841H141.151C139.612 164.841 138.649 163.174 139.419 161.841L145.268 151.71Z" fill="#009C00" stroke="#009C00" stroke-width="2"/>
<path d="M200 183.601V172.986C200 171.881 199.105 170.986 198 170.986H165.091C162.811 170.986 162.308 174.189 164.477 174.889L197.386 185.505C198.677 185.921 200 184.958 200 183.601Z" fill="#009C00" stroke="#009C00" stroke-width="2"/>
<path d="M193.067 194.941L161.787 181.378C159.756 180.497 158.011 183.079 159.586 184.635L183.391 208.164C184.254 209.016 185.67 208.911 186.397 207.941L193.871 197.976C194.647 196.942 194.252 195.455 193.067 194.941Z" fill="#009C00" stroke="#009C00" stroke-width="2"/>
<path d="M161.398 151.71C162.168 150.377 164.093 150.377 164.862 151.71L170.711 161.841C171.481 163.174 170.519 164.841 168.979 164.841H157.282C155.742 164.841 154.78 163.174 155.55 161.841L161.398 151.71Z" fill="#009C00" stroke="#009C00" stroke-width="2"/>
</svg>
