<svg xmlns="http://www.w3.org/2000/svg" xmlns:xlink="http://www.w3.org/1999/xlink" viewBox="0 0 1721 774">
  <defs>
    <style>
      .cls-1 {
        clip-path: url(#clip-Web_1920_1);
      }

      .cls-2, .cls-8 {
        fill: #ffd42a;
      }

      .cls-3 {
        fill: #c87137;
      }

      .cls-4 {
        fill: #5aa02c;
      }

      .cls-5 {
        fill: #8dd35f;
      }

      .cls-17, .cls-21, .cls-6, .cls-7 {
        fill: none;
      }

      .cls-6 {
        stroke: #c76e32;
        stroke-width: 5px;
      }

      .cls-7 {
        stroke: #c77035;
        stroke-width: 11px;
      }

      .cls-13, .cls-9 {
        fill: #f59;
      }

      .cls-10 {
        fill: #ff579a;
      }

      .cls-11 {
        fill: #37c8ab;
      }

      .cls-12 {
        fill: #c77238;
      }

      .cls-13 {
        stroke: #fff;
        stroke-width: 10px;
      }

      .cls-14 {
        fill: #34bca1;
      }

      .cls-15 {
        fill: #2bceac;
      }

      .cls-16 {
        fill: #ff569a;
      }

      .cls-17 {
        stroke: #c87137;
        stroke-width: 6px;
      }

      .cls-18 {
        fill: #ffd21d;
      }

      .cls-19, .cls-20 {
        stroke: none;
      }

      .cls-20, .cls-22 {
        fill: #fff;
      }
    </style>
    <clipPath id="clip-Web_1920_1">
      <rect width="1721" height="774"/>
    </clipPath>
  </defs>
  <g id="Web_1920_1" data-name="Web 1920 – 1" class="cls-1">
    <rect class="cls-22" width="1721" height="774"/>
    <g id="Group_41" data-name="Group 41" transform="translate(0 -301)">
      <g id="Group_40" data-name="Group 40" transform="translate(-101 221)">
        <g id="Path_18" data-name="Path 18" class="cls-2" transform="translate(832.849 208.954) rotate(88)">
          <path class="cls-19" d="M 28.34541702270508 199.3444519042969 L 5.010731220245361 199.3444519042969 C 5.232607364654541 172.8034515380859 8.892086982727051 148.2846374511719 15.89657306671143 126.4334869384766 C 23.09285354614258 103.984016418457 33.77107238769531 84.51048278808594 47.63463592529297 68.55385589599609 C 61.70682144165039 52.35713958740234 79.02226257324219 39.84366989135742 99.0999755859375 31.36104583740234 C 109.3699798583984 27.02210807800293 120.4819183349609 23.7020149230957 132.1271362304688 21.49298477172852 C 142.0954132080078 19.60208320617676 152.6378021240234 18.49065589904785 163.5467529296875 18.1773567199707 C 164.3351745605469 18.93943786621094 165.5216827392578 19.59648132324219 167.3065795898438 19.86979675292969 C 168.3926086425781 20.03610992431641 169.8308563232422 20.11354637145996 171.8328247070313 20.11354637145996 C 172.2746429443359 20.11354637145996 172.7492980957031 20.10957717895508 173.2436676025391 20.10170364379883 C 173.2725982666016 20.10123443603516 173.3026733398438 20.10098457336426 173.3317565917969 20.10098457336426 C 174.5990447998047 20.10098457336426 176.8964233398438 20.52285957336426 180.6444854736328 22.53251457214355 C 183.3767242431641 23.9975471496582 186.4375457763672 26.07126617431641 189.7418518066406 28.69607734680176 C 193.9245758056641 32.01869583129883 197.3971557617188 35.35472869873047 199.0011444091797 36.94915390014648 C 201.0352935791016 46.17581176757813 201.9486541748047 51.40913772583008 202.2272338867188 55.37370300292969 C 202.5101013183594 59.39957809448242 202.13623046875 62.31557846069336 201.5168609619141 67.14667510986328 L 201.4288482666016 67.83364105224609 C 200.0224151611328 78.83320617675781 197.7576599121094 89.33567047119141 194.6974792480469 99.04932403564453 C 191.6941375732422 108.5825500488281 187.8494415283203 117.5943908691406 183.2702026367188 125.8345184326172 C 178.7635345458984 133.9441070556641 173.431640625 141.5108337402344 167.422607421875 148.3245086669922 C 161.4833526611328 155.0590515136719 154.7327270507813 161.2280731201172 147.3582305908203 166.6602020263672 C 140.0375671386719 172.0526733398438 131.9202880859375 176.8531646728516 123.2317886352539 180.9284210205078 C 114.5798568725586 184.9865112304688 105.1513214111328 188.4242401123047 95.20810699462891 191.1460723876953 C 85.28813934326172 193.8615417480469 74.61875915527344 195.9294891357422 63.49638748168945 197.29248046875 C 52.38541793823242 198.6540832519531 40.55891799926758 199.3444519042969 28.34541702270508 199.3444519042969 Z"/>
          <path class="cls-20" d="M 28.34543418884277 194.3444671630859 C 97.62636566162109 194.3444671630859 183.0326080322266 172.2859954833984 196.5574340820313 66.51089477539063 C 197.6781158447266 57.76986312866211 197.9578704833984 55.58978271484375 194.4293212890625 39.43913650512695 C 186.5437164306641 31.71785736083984 176.9123229980469 25.10100364685059 173.3236083984375 25.10103797912598 L 171.8327941894531 25.11357307434082 C 169.8650207519531 25.11357307434082 165.5424957275391 25.11384201049805 162.0600433349609 23.2277717590332 C 68.88906097412109 26.60302734375 12.67179775238037 89.865478515625 10.09266090393066 194.3444671630859 L 28.34543418884277 194.3444671630859 M 28.34543418884277 204.3444671630859 L 6.155831670184853e-06 204.3444671630859 L 6.155831670184853e-06 201.9172210693359 C 6.155831670184853e-06 89.31275177001953 60.29532623291016 13.08528804779053 169.9958343505859 13.08528804779053 C 169.9958343505859 13.08528804779053 162.1202392578125 15.11355590820313 171.8327941894531 15.11355590820313 C 172.2443389892578 15.11355590820313 172.6874084472656 15.10991477966309 173.1640472412109 15.10232353210449 C 173.2191467285156 15.10144519805908 173.2763519287109 15.10099411010742 173.3317565917969 15.10099411010742 C 185.0665588378906 15.10099411010742 203.5708923339844 34.46103668212891 203.5708923339844 34.46103668212891 C 208.2295837402344 55.36039352416992 207.7444305419922 57.86310958862305 206.3884735107422 68.46778869628906 C 194.7002258300781 159.880615234375 127.9181137084961 204.3444671630859 28.34543418884277 204.3444671630859 Z"/>
        </g>
        <g id="Path_17" data-name="Path 17" class="cls-2" transform="translate(922.449 256.958) rotate(112)">
          <path class="cls-19" d="M 28.34541702270508 199.3444519042969 L 5.010731220245361 199.3444519042969 C 5.232607364654541 172.8034515380859 8.892086982727051 148.2846374511719 15.89657306671143 126.4334869384766 C 23.09285354614258 103.984016418457 33.77107238769531 84.51048278808594 47.63463592529297 68.55385589599609 C 61.70682144165039 52.35713958740234 79.02226257324219 39.84366989135742 99.0999755859375 31.36104583740234 C 109.3699798583984 27.02210807800293 120.4819183349609 23.7020149230957 132.1271362304688 21.49298477172852 C 142.0954132080078 19.60208320617676 152.6378021240234 18.49065589904785 163.5467529296875 18.1773567199707 C 164.3351745605469 18.93943786621094 165.5216827392578 19.59648132324219 167.3065795898438 19.86979675292969 C 168.3926086425781 20.03610992431641 169.8308563232422 20.11354637145996 171.8328247070313 20.11354637145996 C 172.2746429443359 20.11354637145996 172.7492980957031 20.10957717895508 173.2436676025391 20.10170364379883 C 173.2725982666016 20.10123443603516 173.3026733398438 20.10098457336426 173.3317565917969 20.10098457336426 C 174.5990447998047 20.10098457336426 176.8964233398438 20.52285957336426 180.6444854736328 22.53251457214355 C 183.3767242431641 23.9975471496582 186.4375457763672 26.07126617431641 189.7418518066406 28.69607734680176 C 193.9245758056641 32.01869583129883 197.3971557617188 35.35472869873047 199.0011444091797 36.94915390014648 C 201.0352935791016 46.17581176757813 201.9486541748047 51.40913772583008 202.2272338867188 55.37370300292969 C 202.5101013183594 59.39957809448242 202.13623046875 62.31557846069336 201.5168609619141 67.14667510986328 L 201.4288482666016 67.83364105224609 C 200.0224151611328 78.83320617675781 197.7576599121094 89.33567047119141 194.6974792480469 99.04932403564453 C 191.6941375732422 108.5825500488281 187.8494415283203 117.5943908691406 183.2702026367188 125.8345184326172 C 178.7635345458984 133.9441070556641 173.431640625 141.5108337402344 167.422607421875 148.3245086669922 C 161.4833526611328 155.0590515136719 154.7327270507813 161.2280731201172 147.3582305908203 166.6602020263672 C 140.0375671386719 172.0526733398438 131.9202880859375 176.8531646728516 123.2317886352539 180.9284210205078 C 114.5798568725586 184.9865112304688 105.1513214111328 188.4242401123047 95.20810699462891 191.1460723876953 C 85.28813934326172 193.8615417480469 74.61875915527344 195.9294891357422 63.49638748168945 197.29248046875 C 52.38541793823242 198.6540832519531 40.55891799926758 199.3444519042969 28.34541702270508 199.3444519042969 Z"/>
          <path class="cls-20" d="M 28.34543418884277 194.3444671630859 C 97.62636566162109 194.3444671630859 183.0326080322266 172.2859954833984 196.5574340820313 66.51089477539063 C 197.6781158447266 57.76986312866211 197.9578704833984 55.58978271484375 194.4293212890625 39.43913650512695 C 186.5437164306641 31.71785736083984 176.9123229980469 25.10100364685059 173.3236083984375 25.10103797912598 L 171.8327941894531 25.11357307434082 C 169.8650207519531 25.11357307434082 165.5424957275391 25.11384201049805 162.0600433349609 23.2277717590332 C 68.88906097412109 26.60302734375 12.67179775238037 89.865478515625 10.09266090393066 194.3444671630859 L 28.34543418884277 194.3444671630859 M 28.34543418884277 204.3444671630859 L 6.155831670184853e-06 204.3444671630859 L 6.155831670184853e-06 201.9172210693359 C 6.155831670184853e-06 89.31275177001953 60.29532623291016 13.08528804779053 169.9958343505859 13.08528804779053 C 169.9958343505859 13.08528804779053 162.1202392578125 15.11355590820313 171.8327941894531 15.11355590820313 C 172.2443389892578 15.11355590820313 172.6874084472656 15.10991477966309 173.1640472412109 15.10232353210449 C 173.2191467285156 15.10144519805908 173.2763519287109 15.10099411010742 173.3317565917969 15.10099411010742 C 185.0665588378906 15.10099411010742 203.5708923339844 34.46103668212891 203.5708923339844 34.46103668212891 C 208.2295837402344 55.36039352416992 207.7444305419922 57.86310958862305 206.3884735107422 68.46778869628906 C 194.7002258300781 159.880615234375 127.9181137084961 204.3444671630859 28.34543418884277 204.3444671630859 Z"/>
        </g>
        <g id="Path_16" data-name="Path 16" class="cls-2" transform="matrix(0.438, 0.899, -0.899, 0.438, 766.063, 229.357)">
          <path class="cls-19" d="M 28.02764129638672 197.2002105712891 L 5.01109504699707 197.2002105712891 C 5.234983921051025 170.9833526611328 8.852302551269531 146.7656860351563 15.77173519134521 125.1798400878906 C 22.88501739501953 102.9893112182617 33.43979644775391 83.74074554443359 47.14292144775391 67.96878051757813 C 61.05167388916016 51.96015167236328 78.16610717773438 39.59196472167969 98.01079559326172 31.20780754089355 C 108.1619873046875 26.91905784606934 119.1455154418945 23.6373405456543 130.6562957763672 21.45380783081055 C 140.5027313232422 19.58601379394531 150.9149475097656 18.48763847351074 161.6902770996094 18.1770191192627 C 162.4769134521484 18.93057632446289 163.6560363769531 19.57867813110352 165.4223937988281 19.84915161132813 C 166.4991455078125 20.0140266418457 167.9239196777344 20.0908088684082 169.9063568115234 20.0908088684082 C 170.3435211181641 20.0908088684082 170.8131713867188 20.08687019348145 171.3022918701172 20.0790901184082 C 171.3306121826172 20.07862091064453 171.3600158691406 20.07840156555176 171.3885192871094 20.07840156555176 C 172.6351776123047 20.07840156555176 174.8969879150391 20.49437141418457 178.5927734375 22.47602653503418 C 181.2914581298828 23.92302703857422 184.3151397705078 25.97165298461914 187.5798034667969 28.56496429443359 C 191.7037353515625 31.84088325500488 195.1289215087891 35.12975692749023 196.7189178466797 36.70973205566406 C 198.7272491455078 45.82040405273438 199.6290588378906 50.98853302001953 199.9041442871094 54.90352630615234 C 200.1834564208984 58.87871551513672 199.8140411376953 61.75996398925781 199.2020111083984 66.53343200683594 L 199.1150207519531 67.21271514892578 C 197.7247619628906 78.08568572998047 195.4861145019531 88.46711730957031 192.4612426757813 98.06871795654297 C 189.4927062988281 107.4914627075195 185.6926116943359 116.3987808227539 181.1665496826172 124.5432434082031 C 176.7123565673828 132.5583648681641 171.4425506591797 140.0369720458984 165.5035858154297 146.771240234375 C 159.633544921875 153.4273071289063 152.9615478515625 159.5244293212891 145.6729278564453 164.893310546875 C 138.4373016357422 170.2231597900391 130.4141693115234 174.9679718017578 121.8264236450195 178.9959716796875 C 113.2743911743164 183.0072174072266 103.9545822143555 186.4052429199219 94.12592315673828 189.0957489013672 C 84.31976318359375 191.7800598144531 73.772705078125 193.8242797851563 62.77770233154297 195.1716461181641 C 51.79354858398438 196.5177154541016 40.10192108154297 197.2002105712891 28.02764129638672 197.2002105712891 Z"/>
          <path class="cls-20" d="M 28.02765464782715 192.2002410888672 C 96.48683166503906 192.2002410888672 180.8797912597656 170.4060668945313 194.2426147460938 65.89763641357422 C 195.3480682373047 57.27541732788086 195.6246185302734 55.12142562866211 192.1463623046875 39.19655609130859 C 184.4852600097656 31.70099067687988 174.8586578369141 25.07839393615723 171.3818054199219 25.07846069335938 L 169.9064483642578 25.09081649780273 C 167.9537658691406 25.09081649780273 163.6729888916016 25.09098434448242 160.2102813720703 23.22747611999512 C 68.20578002929688 26.57625198364258 12.68239212036133 89.04248809814453 10.09446907043457 192.2002410888672 L 28.02765464782715 192.2002410888672 M 28.02765464782715 202.2002410888672 L 1.219831210619304e-05 202.2002410888672 L 1.219831210619304e-05 199.8001708984375 C 1.219831210619304e-05 88.45813751220703 59.61936950683594 13.08528137207031 168.0900115966797 13.08528137207031 C 168.0900115966797 13.08528137207031 160.3027954101563 15.0908145904541 169.9064483642578 15.0908145904541 C 170.3133850097656 15.0908145904541 170.7514038085938 15.08721542358398 171.2226867675781 15.07971000671387 C 171.2771759033203 15.07884216308594 171.3337249755859 15.07839584350586 171.3885192871094 15.07839584350586 C 182.9917449951172 15.07839584350586 201.2886505126953 34.22138977050781 201.2886505126953 34.22138977050781 C 205.8950805664063 54.88645935058594 205.4153747558594 57.36110305786133 204.0746154785156 67.84688568115234 C 192.5174407958984 158.2348937988281 126.4840087890625 202.2002410888672 28.02765464782715 202.2002410888672 Z"/>
        </g>
      </g>
      <path id="Path_19" data-name="Path 19" class="cls-3" d="M56.659,29.843C89.8,29.843,120,17.237,120,38.5S93.137,77,60,77,0,59.763,0,38.5,23.522,29.843,56.659,29.843Z" transform="matrix(0.695, -0.719, 0.719, 0.695, 641.266, 647.069)"/>
      <g id="Group_39" data-name="Group 39" transform="translate(-101 221)">
        <path id="Rectangle_33" data-name="Rectangle 33" class="cls-4" d="M101.788,0H103a0,0,0,0,1,0,0V23A103,103,0,0,1,0,126H0a0,0,0,0,1,0,0V101.788A101.788,101.788,0,0,1,101.788,0Z" transform="translate(976.771 319.412) rotate(14)"/>
        <path id="Rectangle_32" data-name="Rectangle 32" class="cls-5" d="M101.788,0H103a0,0,0,0,1,0,0V23A103,103,0,0,1,0,126H0a0,0,0,0,1,0,0V101.788A101.788,101.788,0,0,1,101.788,0Z" transform="matrix(0.978, -0.208, 0.208, 0.978, 874.027, 309.084)"/>
      </g>
      <g id="Group_24" data-name="Group 24" transform="translate(-101 221)">
        <path id="Path_13" data-name="Path 13" class="cls-6" d="M551.515,402.786S652.943,433.995,696.83,504.7,729.5,624.173,729.5,624.173"/>
        <path id="Path_14" data-name="Path 14" class="cls-6" d="M557.854,430.582s95.089,3.413,138.976,74.12S729.5,624.173,729.5,624.173"/>
        <path id="Path_15" data-name="Path 15" class="cls-6" d="M551.515,473.981s105.329-26.332,149.216,44.375S729.5,624.173,729.5,624.173"/>
      </g>
      <g id="Group_12" data-name="Group 12" transform="translate(-1096.186 213)">
        <path id="Rectangle_30" data-name="Rectangle 30" class="cls-4" d="M0,0H1.241A104.246,104.246,0,0,1,105.487,104.246V126a0,0,0,0,1,0,0h0A105.487,105.487,0,0,1,0,20.513V0A0,0,0,0,1,0,0Z" transform="translate(1485.882 485)"/>
        <path id="Path_10" data-name="Path 10" class="cls-5" d="M110.884,129.769l1.322,0,.062-23.736C112.419,47.326,62.235-.144.178,0L.113,24.99C-.037,83,49.557,129.915,110.884,129.769Z" transform="matrix(-0.995, -0.105, 0.105, -0.995, 1702.285, 616.06)"/>
        <path id="Path_6" data-name="Path 6" class="cls-5" d="M103.867,125.646l1.24-.006.113-23.024C105.5,45.671,58.546-.265.346.014L.227,24.251C-.049,80.526,46.352,125.922,103.867,125.646Z" transform="matrix(-0.978, -0.208, 0.208, -0.978, 1810.642, 654.417)"/>
        <path id="Rectangle_24" data-name="Rectangle 24" class="cls-4" d="M0,0H0A38.557,38.557,0,0,1,38.557,38.557v8.61a0,0,0,0,1,0,0H38.1A38.1,38.1,0,0,1,0,9.063V0A0,0,0,0,1,0,0Z" transform="translate(1145.268 534.836) rotate(166)"/>
        <path id="Rectangle_23" data-name="Rectangle 23" class="cls-5" d="M0,0H0A43.524,43.524,0,0,1,43.524,43.524v9.719a0,0,0,0,1,0,0h-.512A43.012,43.012,0,0,1,0,10.231V0A0,0,0,0,1,0,0Z" transform="translate(1171.649 551.27) rotate(-149)"/>
        <path id="Rectangle_22" data-name="Rectangle 22" class="cls-5" d="M0,0H0A49.713,49.713,0,0,1,49.713,49.713v11.1a0,0,0,0,1,0,0h-.585A49.129,49.129,0,0,1,0,11.686V0A0,0,0,0,1,0,0Z" transform="matrix(-0.883, -0.469, 0.469, -0.883, 1216.069, 573.298)"/>
        <path id="Rectangle_25" data-name="Rectangle 25" class="cls-5" d="M0,0H0A59.862,59.862,0,0,1,59.862,59.862V73.229a0,0,0,0,1,0,0h-.7A59.158,59.158,0,0,1,0,14.071V0A0,0,0,0,1,0,0Z" transform="matrix(-0.966, -0.259, 0.259, -0.966, 1299.969, 595.095)"/>
        <path id="Rectangle_26" data-name="Rectangle 26" class="cls-4" d="M0,0H0A74.254,74.254,0,0,1,74.254,74.254V90.835a0,0,0,0,1,0,0H73.38A73.38,73.38,0,0,1,0,17.454V0A0,0,0,0,1,0,0Z" transform="translate(1387.989 608.093) rotate(178)"/>
        <path id="Rectangle_28" data-name="Rectangle 28" class="cls-5" d="M0,0H0A82.851,82.851,0,0,1,82.851,82.851v18.5a0,0,0,0,1,0,0h-.975A81.877,81.877,0,0,1,0,19.476V0A0,0,0,0,1,0,0Z" transform="translate(1486.668 606.773) rotate(178)"/>
        <path id="Rectangle_29" data-name="Rectangle 29" class="cls-4" d="M81,0H93.2a0,0,0,0,1,0,0V0a81,81,0,0,1-81,81H0a0,0,0,0,1,0,0v0A81,81,0,0,1,81,0Z" transform="translate(1399.854 618)"/>
        <path id="Rectangle_27" data-name="Rectangle 27" class="cls-5" d="M74,0h5.883a0,0,0,0,1,0,0V0a74,74,0,0,1-74,74H0a0,0,0,0,1,0,0v0A74,74,0,0,1,74,0Z" transform="translate(1308.705 616)"/>
        <path id="Path_7" data-name="Path 7" class="cls-4" d="M.548,61.141l14.323-.069c33.9-.163,61.518-27.186,61.681-60.357L62.229.784C28.326.946.711,27.969.548,61.141Z" transform="matrix(-0.978, -0.208, 0.208, -0.978, 1287.148, 662.836)"/>
        <path id="Path_8" data-name="Path 8" class="cls-4" d="M1.5,128.2c58.155-.364,105.593-46.858,105.957-103.848L107.6,1.307l-1.239.008C48.894,1.675,2.014,47.622,1.654,103.941Z" transform="translate(1765.58 767.59) rotate(-164)"/>
        <path id="Path_9" data-name="Path 9" class="cls-5" d="M.92,102.608l2.046-.01C60.035,102.325,106.521,56.836,106.8,1l-3.262.016C47.135,1.284,1.2,46.237.925,101.419Z" transform="matrix(-0.978, -0.208, 0.208, -0.978, 1686.658, 723.809)"/>
        <path id="Rectangle_19" data-name="Rectangle 19" class="cls-4" d="M0,0H0A45.951,45.951,0,0,1,45.951,45.951V56.212a0,0,0,0,1,0,0H45.41A45.41,45.41,0,0,1,0,10.8V0A0,0,0,0,1,0,0Z" transform="matrix(-0.438, 0.899, -0.899, -0.438, 1213.241, 583.328)"/>
        <path id="Rectangle_21" data-name="Rectangle 21" class="cls-4" d="M0,0H0A36.174,36.174,0,0,1,36.174,36.174v8.078a0,0,0,0,1,0,0h-.426A35.748,35.748,0,0,1,0,8.5V0A0,0,0,0,1,0,0Z" transform="matrix(-0.438, 0.899, -0.899, -0.438, 1159.455, 548.714)"/>
        <path id="Rectangle_31" data-name="Rectangle 31" class="cls-4" d="M81.392,0h.969a0,0,0,0,1,0,0V18.391A82.361,82.361,0,0,1,0,100.752H0a0,0,0,0,1,0,0V81.392A81.392,81.392,0,0,1,81.392,0Z" transform="translate(1577.016 719.465) rotate(-173)"/>
        <path id="Path_5" data-name="Path 5" class="cls-7" d="M1793.789,653s-187.281-66.381-343.04-39.223-328.206-85.1-328.206-85.1" transform="translate(14.143)"/>
      </g>
      <g id="Group_6" data-name="Group 6" transform="matrix(0.588, -0.809, 0.809, 0.588, -97.411, 1252.9)">
        <ellipse id="Ellipse_13" data-name="Ellipse 13" class="cls-8" cx="55.684" cy="115.494" rx="55.684" ry="115.494" transform="matrix(-0.139, 0.99, -0.99, -0.139, 1007.206, 670.752)"/>
        <ellipse id="Ellipse_14" data-name="Ellipse 14" class="cls-8" cx="55.684" cy="115.494" rx="55.684" ry="115.494" transform="matrix(-0.921, 0.391, -0.391, -0.921, 981.471, 794.376)"/>
        <g id="Group_4" data-name="Group 4" transform="translate(762.967 581.751)">
          <ellipse id="Ellipse_15" data-name="Ellipse 15" class="cls-9" cx="55.684" cy="115.494" rx="55.684" ry="115.494" transform="matrix(-0.139, 0.99, -0.99, -0.139, 244.239, 89.001)"/>
          <ellipse id="Ellipse_16" data-name="Ellipse 16" class="cls-9" cx="55.684" cy="115.494" rx="55.684" ry="115.494" transform="matrix(-0.921, 0.391, -0.391, -0.921, 218.504, 212.625)"/>
        </g>
        <ellipse id="Ellipse_17" data-name="Ellipse 17" class="cls-10" cx="55.684" cy="115.494" rx="55.684" ry="115.494" transform="translate(905.717 583.275) rotate(35)"/>
        <circle id="Ellipse_5" data-name="Ellipse 5" class="cls-11" cx="11.343" cy="11.343" r="11.343" transform="translate(875.401 704.72)"/>
        <circle id="Ellipse_6" data-name="Ellipse 6" class="cls-11" cx="5.156" cy="5.156" r="5.156" transform="translate(887.775 729.468)"/>
        <circle id="Ellipse_7" data-name="Ellipse 7" class="cls-11" cx="6.187" cy="6.187" r="6.187" transform="translate(898.087 718.125)"/>
        <circle id="Ellipse_8" data-name="Ellipse 8" class="cls-11" cx="2.578" cy="2.578" r="2.578" transform="translate(902.212 709.876)"/>
        <circle id="Ellipse_9" data-name="Ellipse 9" class="cls-11" cx="3.609" cy="3.609" r="3.609" transform="translate(897.056 698.533)"/>
        <circle id="Ellipse_10" data-name="Ellipse 10" class="cls-11" cx="4.125" cy="4.125" r="4.125" transform="translate(882.619 693.377)"/>
        <circle id="Ellipse_11" data-name="Ellipse 11" class="cls-11" cx="4.125" cy="4.125" r="4.125" transform="translate(871.276 697.501)"/>
        <circle id="Ellipse_12" data-name="Ellipse 12" class="cls-11" cx="5.672" cy="5.672" r="5.672" transform="translate(861.996 716.063)"/>
      </g>
      <g id="Group_7" data-name="Group 7" transform="matrix(0.087, -0.996, 0.996, 0.087, 271.826, 1509.926)">
        <ellipse id="Ellipse_13-2" data-name="Ellipse 13" class="cls-8" cx="55.684" cy="115.494" rx="55.684" ry="115.494" transform="matrix(-0.139, 0.99, -0.99, -0.139, 1007.206, 670.752)"/>
        <ellipse id="Ellipse_14-2" data-name="Ellipse 14" class="cls-8" cx="55.684" cy="115.494" rx="55.684" ry="115.494" transform="matrix(-0.921, 0.391, -0.391, -0.921, 981.471, 794.376)"/>
        <g id="Group_4-2" data-name="Group 4" transform="translate(762.967 581.751)">
          <ellipse id="Ellipse_15-2" data-name="Ellipse 15" class="cls-11" cx="55.684" cy="115.494" rx="55.684" ry="115.494" transform="matrix(-0.139, 0.99, -0.99, -0.139, 244.239, 89.001)"/>
          <ellipse id="Ellipse_16-2" data-name="Ellipse 16" class="cls-11" cx="55.684" cy="115.494" rx="55.684" ry="115.494" transform="matrix(-0.921, 0.391, -0.391, -0.921, 218.504, 212.625)"/>
        </g>
        <ellipse id="Ellipse_17-2" data-name="Ellipse 17" class="cls-11" cx="55.684" cy="115.494" rx="55.684" ry="115.494" transform="translate(905.717 583.275) rotate(35)"/>
        <g id="Group_7-2" data-name="Group 7">
          <circle id="Ellipse_5-2" data-name="Ellipse 5" class="cls-12" cx="11.343" cy="11.343" r="11.343" transform="translate(875.401 704.72)"/>
          <circle id="Ellipse_6-2" data-name="Ellipse 6" class="cls-12" cx="5.156" cy="5.156" r="5.156" transform="translate(887.775 729.468)"/>
          <circle id="Ellipse_7-2" data-name="Ellipse 7" class="cls-12" cx="6.187" cy="6.187" r="6.187" transform="translate(898.087 718.125)"/>
          <circle id="Ellipse_8-2" data-name="Ellipse 8" class="cls-12" cx="2.578" cy="2.578" r="2.578" transform="translate(902.212 709.876)"/>
          <circle id="Ellipse_9-2" data-name="Ellipse 9" class="cls-12" cx="3.609" cy="3.609" r="3.609" transform="translate(897.056 698.533)"/>
          <circle id="Ellipse_10-2" data-name="Ellipse 10" class="cls-12" cx="4.125" cy="4.125" r="4.125" transform="translate(882.619 693.377)"/>
          <circle id="Ellipse_11-2" data-name="Ellipse 11" class="cls-12" cx="4.125" cy="4.125" r="4.125" transform="translate(871.276 697.501)"/>
          <circle id="Ellipse_12-2" data-name="Ellipse 12" class="cls-12" cx="5.672" cy="5.672" r="5.672" transform="translate(861.996 716.063)"/>
        </g>
      </g>
      <g id="Group_8" data-name="Group 8" transform="translate(-101 221)">
        <ellipse id="Ellipse_13-3" data-name="Ellipse 13" class="cls-8" cx="54" cy="112" rx="54" ry="112" transform="matrix(-0.139, 0.99, -0.99, -0.139, 999.818, 668.06)"/>
        <ellipse id="Ellipse_14-3" data-name="Ellipse 14" class="cls-8" cx="54" cy="112" rx="54" ry="112" transform="matrix(-0.921, 0.391, -0.391, -0.921, 974.861, 787.944)"/>
        <g id="Group_4-3" data-name="Group 4">
          <ellipse id="Ellipse_15-3" data-name="Ellipse 15" class="cls-8" cx="54" cy="112" rx="54" ry="112" transform="matrix(-0.139, 0.99, -0.99, -0.139, 999.818, 668.06)"/>
          <ellipse id="Ellipse_16-3" data-name="Ellipse 16" class="cls-8" cx="54" cy="112" rx="54" ry="112" transform="matrix(-0.921, 0.391, -0.391, -0.921, 974.861, 787.944)"/>
        </g>
        <ellipse id="Ellipse_17-3" data-name="Ellipse 17" class="cls-8" cx="54" cy="112" rx="54" ry="112" transform="translate(901.399 583.229) rotate(35)"/>
        <circle id="Ellipse_5-3" data-name="Ellipse 5" class="cls-4" cx="11" cy="11" r="11" transform="translate(872 701)"/>
        <circle id="Ellipse_6-3" data-name="Ellipse 6" class="cls-4" cx="5" cy="5" r="5" transform="translate(884 725)"/>
        <circle id="Ellipse_7-3" data-name="Ellipse 7" class="cls-4" cx="6" cy="6" r="6" transform="translate(894 714)"/>
        <circle id="Ellipse_8-3" data-name="Ellipse 8" class="cls-4" cx="2.5" cy="2.5" r="2.5" transform="translate(898 706)"/>
        <circle id="Ellipse_9-3" data-name="Ellipse 9" class="cls-4" cx="3.5" cy="3.5" r="3.5" transform="translate(893 695)"/>
        <circle id="Ellipse_10-3" data-name="Ellipse 10" class="cls-4" cx="4" cy="4" r="4" transform="translate(879 690)"/>
        <circle id="Ellipse_11-3" data-name="Ellipse 11" class="cls-4" cx="4" cy="4" r="4" transform="translate(868 694)"/>
        <circle id="Ellipse_12-3" data-name="Ellipse 12" class="cls-4" cx="5.5" cy="5.5" r="5.5" transform="translate(859 712)"/>
      </g>
      <g id="Rectangle_1" data-name="Rectangle 1" class="cls-13" transform="translate(729 621)">
        <rect class="cls-19" width="231" height="231" rx="51"/>
        <rect class="cls-21" x="5" y="5" width="221" height="221" rx="46"/>
      </g>
      <g id="Ellipse_18" data-name="Ellipse 18" class="cls-13" transform="translate(773 590)">
        <ellipse class="cls-19" cx="73.5" cy="144.5" rx="73.5" ry="144.5"/>
        <ellipse class="cls-21" cx="73.5" cy="144.5" rx="68.5" ry="139.5"/>
      </g>
      <g id="Ellipse_19" data-name="Ellipse 19" class="cls-13" transform="translate(991 661) rotate(90)">
        <ellipse class="cls-19" cx="73.5" cy="144.5" rx="73.5" ry="144.5"/>
        <ellipse class="cls-21" cx="73.5" cy="144.5" rx="68.5" ry="139.5"/>
      </g>
      <ellipse id="Ellipse_20" data-name="Ellipse 20" class="cls-9" cx="66" cy="129.5" rx="66" ry="129.5" transform="translate(781 605)"/>
      <ellipse id="Ellipse_21" data-name="Ellipse 21" class="cls-14" cx="21" cy="20.5" rx="21" ry="20.5" transform="translate(822 713)"/>
      <g id="Group_9" data-name="Group 9" transform="translate(-101 221)">
        <rect id="Rectangle_1-2" data-name="Rectangle 1" class="cls-15" width="5" height="30" rx="2.5" transform="translate(948 455)"/>
        <rect id="Rectangle_2" data-name="Rectangle 2" class="cls-15" width="5" height="30" rx="2.5" transform="translate(940 543)"/>
        <g id="Group_1" data-name="Group 1" transform="translate(-96.273 783.596) rotate(-43)">
          <rect id="Rectangle_4" data-name="Rectangle 4" class="cls-15" width="5" height="30" rx="2.5" transform="translate(947.95 453.587)"/>
          <rect id="Rectangle_3" data-name="Rectangle 3" class="cls-15" width="5" height="30" rx="2.5" transform="translate(942.145 543.633)"/>
        </g>
      </g>
      <g id="Group_10" data-name="Group 10" transform="translate(332 1682) rotate(-90)">
        <rect id="Rectangle_1-3" data-name="Rectangle 1" class="cls-15" width="5" height="30" rx="2.5" transform="translate(950 453)"/>
        <rect id="Rectangle_2-2" data-name="Rectangle 2" class="cls-15" width="5" height="30" rx="2.5" transform="translate(942 543)"/>
        <g id="Group_1-2" data-name="Group 1" transform="translate(-96.273 783.596) rotate(-43)">
          <rect id="Rectangle_4-2" data-name="Rectangle 4" class="cls-15" width="5" height="30" rx="2.5" transform="translate(947.95 453.587)"/>
          <rect id="Rectangle_3-2" data-name="Rectangle 3" class="cls-15" width="5" height="30" rx="2.5" transform="translate(942.145 543.633)"/>
        </g>
      </g>
      <path id="Rectangle_2-3" data-name="Rectangle 2" class="cls-4" d="M101.788,0H103a0,0,0,0,1,0,0V23A103,103,0,0,1,0,126H0a0,0,0,0,1,0,0V101.788A101.788,101.788,0,0,1,101.788,0Z" transform="translate(1233 706)"/>
      <path id="Rectangle_3-3" data-name="Rectangle 3" class="cls-5" d="M101.788,0H103a0,0,0,0,1,0,0V23A103,103,0,0,1,0,126H0a0,0,0,0,1,0,0V101.788A101.788,101.788,0,0,1,101.788,0Z" transform="matrix(0.995, -0.105, 0.105, 0.995, 1111.697, 711.728)"/>
      <path id="Rectangle_4-3" data-name="Rectangle 4" class="cls-5" d="M101.788,0H103a0,0,0,0,1,0,0V23A103,103,0,0,1,0,126H0a0,0,0,0,1,0,0V101.788A101.788,101.788,0,0,1,101.788,0Z" transform="matrix(0.978, -0.208, 0.208, 0.978, 993.027, 752.084)"/>
      <path id="Rectangle_5" data-name="Rectangle 5" class="cls-4" d="M39.529,0H40a0,0,0,0,1,0,0V9A40,40,0,0,1,0,49H0a0,0,0,0,1,0,0V39.529A39.529,39.529,0,0,1,39.529,0Z" transform="translate(1679.695 708.093) rotate(14)"/>
      <path id="Rectangle_6" data-name="Rectangle 6" class="cls-5" d="M43.482,0H44a0,0,0,0,1,0,0V10A44,44,0,0,1,0,54H0a0,0,0,0,1,0,0V43.482A43.482,43.482,0,0,1,43.482,0Z" transform="translate(1616.371 725.108) rotate(-31)"/>
      <path id="Rectangle_7" data-name="Rectangle 7" class="cls-5" d="M50.4,0H51a0,0,0,0,1,0,0V11A51,51,0,0,1,0,62H0a0,0,0,0,1,0,0V50.4A50.4,50.4,0,0,1,50.4,0Z" transform="translate(1571.854 738.696) rotate(-28)"/>
      <path id="Rectangle_8" data-name="Rectangle 8" class="cls-5" d="M61.271,0H62a0,0,0,0,1,0,0V14A62,62,0,0,1,0,76H0a0,0,0,0,1,0,0V61.271A61.271,61.271,0,0,1,61.271,0Z" transform="matrix(0.966, -0.259, 0.259, 0.966, 1499.08, 742.334)"/>
      <path id="Rectangle_9" data-name="Rectangle 9" class="cls-4" d="M77.082,0H78a0,0,0,0,1,0,0V17A78,78,0,0,1,0,95H0a0,0,0,0,1,0,0V77.082A77.082,77.082,0,0,1,77.082,0Z" transform="translate(1434.68 734.142) rotate(2)"/>
      <path id="Rectangle_10" data-name="Rectangle 10" class="cls-5" d="M85.976,0H87a0,0,0,0,1,0,0V19A87,87,0,0,1,0,106H0a0,0,0,0,1,0,0V85.976A85.976,85.976,0,0,1,85.976,0Z" transform="translate(1338.686 721.828) rotate(2)"/>
      <path id="Rectangle_11" data-name="Rectangle 11" class="cls-4" d="M0,0H10A81,81,0,0,1,91,81v0a0,0,0,0,1,0,0H81A81,81,0,0,1,0,0V0A0,0,0,0,1,0,0Z" transform="translate(1329 839)"/>
      <path id="Rectangle_12" data-name="Rectangle 12" class="cls-5" d="M0,0H4A74,74,0,0,1,78,74v0a0,0,0,0,1,0,0H74A74,74,0,0,1,0,0V0A0,0,0,0,1,0,0Z" transform="translate(1431 837)"/>
      <path id="Rectangle_13" data-name="Rectangle 13" class="cls-4" d="M0,0H14A60,60,0,0,1,74,60v0a0,0,0,0,1,0,0H60A60,60,0,0,1,0,0V0A0,0,0,0,1,0,0Z" transform="matrix(0.978, -0.208, 0.208, 0.978, 1518.16, 823.917)"/>
      <path id="Rectangle_14" data-name="Rectangle 14" class="cls-4" d="M0,0H0A103,103,0,0,1,103,103v23a0,0,0,0,1,0,0h-1.212A101.788,101.788,0,0,1,0,24.212V0A0,0,0,0,1,0,0Z" transform="translate(1029.8 864.946) rotate(-16)"/>
      <path id="Rectangle_15" data-name="Rectangle 15" class="cls-5" d="M0,0H2A101,101,0,0,1,103,101v0a0,0,0,0,1,0,0H99.812A99.812,99.812,0,0,1,0,1.188V0A0,0,0,0,1,0,0Z" transform="matrix(0.978, -0.208, 0.208, 0.978, 1120.005, 844.252)"/>
      <path id="Rectangle_16" data-name="Rectangle 16" class="cls-4" d="M46.447,0H47a0,0,0,0,1,0,0V10A47,47,0,0,1,0,57H0a0,0,0,0,1,0,0V46.447A46.447,46.447,0,0,1,46.447,0Z" transform="translate(1651.113 778.778) rotate(64)"/>
      <path id="Rectangle_17" data-name="Rectangle 17" class="cls-4" d="M36.565,0H37a0,0,0,0,1,0,0V9A37,37,0,0,1,0,46H0a0,0,0,0,1,0,0V36.565A36.565,36.565,0,0,1,36.565,0Z" transform="translate(1693.226 749.601) rotate(64)"/>
      <path id="Rectangle_18" data-name="Rectangle 18" class="cls-4" d="M0,0H0A86,86,0,0,1,86,86v19.2a0,0,0,0,1,0,0H84.988A84.988,84.988,0,0,1,0,20.216V0A0,0,0,0,1,0,0Z" transform="translate(1235.033 835.935) rotate(-7)"/>
      <path id="Path_4" data-name="Path 4" class="cls-7" d="M1122.543,653s182.866-66.381,334.952-39.223,320.468-85.1,320.468-85.1" transform="translate(-101 221)"/>
      <g id="Group_13" data-name="Group 13" transform="translate(-101 221)">
        <path id="Path_12" data-name="Path 12" class="cls-11" d="M20,0C31.046,0,40,12.536,40,28S30.938,51.647,19.892,51.647,0,43.464,0,28,8.954,0,20,0Z" transform="matrix(0.485, -0.875, 0.875, 0.485, 468.814, 384.918)"/>
        <path id="Path_11" data-name="Path 11" class="cls-3" d="M519.033,369.312s5.122,3.415,6.961,7.092,3.021,11.82,3.021,11.82,5.122,3.021,3.677,6.173a13.837,13.837,0,0,1-3.677,4.859s-9.981-.394-9.325,0-1.839,3.415-17.993,2.627,14.315-4.071,14.315-4.071-9.85-4.2-12.477-8.405,16.154,1.313,16.154,1.313-8.537-11.295-10.375-15.1,12.871,7.749,12.871,7.749Z"/>
      </g>
      <g id="Group_16" data-name="Group 16" transform="translate(-239.993 363.951) rotate(-13)">
        <path id="Path_12-2" data-name="Path 12" class="cls-11" d="M20,0C31.046,0,40,12.536,40,28S30.938,51.647,19.892,51.647,0,43.464,0,28,8.954,0,20,0Z" transform="matrix(0.485, -0.875, 0.875, 0.485, 468.814, 384.918)"/>
        <path id="Path_11-2" data-name="Path 11" class="cls-3" d="M519.033,369.312s5.122,3.415,6.961,7.092,3.021,11.82,3.021,11.82,5.122,3.021,3.677,6.173a13.837,13.837,0,0,1-3.677,4.859s-9.981-.394-9.325,0-1.839,3.415-17.993,2.627,14.315-4.071,14.315-4.071-9.85-4.2-12.477-8.405,16.154,1.313,16.154,1.313-8.537-11.295-10.375-15.1,12.871,7.749,12.871,7.749Z"/>
      </g>
      <g id="Group_14" data-name="Group 14" transform="translate(-224.091 607.213) rotate(-33)">
        <path id="Path_12-3" data-name="Path 12" class="cls-11" d="M20,0C31.046,0,40,12.536,40,28S30.938,51.647,19.892,51.647,0,43.464,0,28,8.954,0,20,0Z" transform="matrix(0.485, -0.875, 0.875, 0.485, 468.814, 384.918)"/>
        <path id="Path_11-3" data-name="Path 11" class="cls-3" d="M519.033,369.312s5.122,3.415,6.961,7.092,3.021,11.82,3.021,11.82,5.122,3.021,3.677,6.173a13.837,13.837,0,0,1-3.677,4.859s-9.981-.394-9.325,0-1.839,3.415-17.993,2.627,14.315-4.071,14.315-4.071-9.85-4.2-12.477-8.405,16.154,1.313,16.154,1.313-8.537-11.295-10.375-15.1,12.871,7.749,12.871,7.749Z"/>
      </g>
      <g id="Group_17" data-name="Group 17" transform="matrix(0.225, -0.974, 0.974, 0.225, -61.833, 1125.729)">
        <path id="Path_12-4" data-name="Path 12" class="cls-11" d="M20,0C31.046,0,40,12.536,40,28S30.938,51.647,19.892,51.647,0,43.464,0,28,8.954,0,20,0Z" transform="matrix(0.485, -0.875, 0.875, 0.485, 468.814, 384.918)"/>
        <path id="Path_11-4" data-name="Path 11" class="cls-3" d="M519.033,369.312s5.122,3.415,6.961,7.092,3.021,11.82,3.021,11.82,5.122,3.021,3.677,6.173a13.837,13.837,0,0,1-3.677,4.859s-9.981-.394-9.325,0-1.839,3.415-17.993,2.627,14.315-4.071,14.315-4.071-9.85-4.2-12.477-8.405,16.154,1.313,16.154,1.313-8.537-11.295-10.375-15.1,12.871,7.749,12.871,7.749Z"/>
      </g>
      <g id="Group_18" data-name="Group 18" transform="matrix(0.5, -0.866, 0.866, 0.5, -213.494, 954.935)">
        <path id="Path_12-5" data-name="Path 12" class="cls-11" d="M20,0C31.046,0,40,12.536,40,28S30.938,51.647,19.892,51.647,0,43.464,0,28,8.954,0,20,0Z" transform="matrix(0.485, -0.875, 0.875, 0.485, 468.814, 384.918)"/>
        <path id="Path_11-5" data-name="Path 11" class="cls-3" d="M519.033,369.312s5.122,3.415,6.961,7.092,3.021,11.82,3.021,11.82,5.122,3.021,3.677,6.173a13.837,13.837,0,0,1-3.677,4.859s-9.981-.394-9.325,0-1.839,3.415-17.993,2.627,14.315-4.071,14.315-4.071-9.85-4.2-12.477-8.405,16.154,1.313,16.154,1.313-8.537-11.295-10.375-15.1,12.871,7.749,12.871,7.749Z"/>
      </g>
      <g id="Group_19" data-name="Group 19" transform="translate(-150.1 1122.106) rotate(-72)">
        <path id="Path_12-6" data-name="Path 12" class="cls-11" d="M20,0C31.046,0,40,12.536,40,28S30.938,51.647,19.892,51.647,0,43.464,0,28,8.954,0,20,0Z" transform="matrix(0.485, -0.875, 0.875, 0.485, 468.814, 384.918)"/>
        <path id="Path_11-6" data-name="Path 11" class="cls-3" d="M519.033,369.312s5.122,3.415,6.961,7.092,3.021,11.82,3.021,11.82,5.122,3.021,3.677,6.173a13.837,13.837,0,0,1-3.677,4.859s-9.981-.394-9.325,0-1.839,3.415-17.993,2.627,14.315-4.071,14.315-4.071-9.85-4.2-12.477-8.405,16.154,1.313,16.154,1.313-8.537-11.295-10.375-15.1,12.871,7.749,12.871,7.749Z"/>
      </g>
      <g id="Group_23" data-name="Group 23" transform="matrix(0.515, -0.857, 0.857, 0.515, -289.664, 1008.782)">
        <path id="Path_12-7" data-name="Path 12" class="cls-11" d="M20,0C31.046,0,40,12.536,40,28S30.938,51.647,19.892,51.647,0,43.464,0,28,8.954,0,20,0Z" transform="matrix(0.485, -0.875, 0.875, 0.485, 468.814, 384.918)"/>
        <path id="Path_11-7" data-name="Path 11" class="cls-3" d="M519.033,369.312s5.122,3.415,6.961,7.092,3.021,11.82,3.021,11.82,5.122,3.021,3.677,6.173a13.837,13.837,0,0,1-3.677,4.859s-9.981-.394-9.325,0-1.839,3.415-17.993,2.627,14.315-4.071,14.315-4.071-9.85-4.2-12.477-8.405,16.154,1.313,16.154,1.313-8.537-11.295-10.375-15.1,12.871,7.749,12.871,7.749Z"/>
      </g>
      <g id="Group_15" data-name="Group 15" transform="translate(-293.039 628.105) rotate(-33)">
        <path id="Path_12-8" data-name="Path 12" class="cls-11" d="M20,0C31.046,0,40,12.536,40,28S30.938,51.647,19.892,51.647,0,43.464,0,28,8.954,0,20,0Z" transform="matrix(0.485, -0.875, 0.875, 0.485, 468.814, 384.918)"/>
        <path id="Path_11-8" data-name="Path 11" class="cls-3" d="M519.033,369.312s5.122,3.415,6.961,7.092,3.021,11.82,3.021,11.82,5.122,3.021,3.677,6.173a13.837,13.837,0,0,1-3.677,4.859s-9.981-.394-9.325,0-1.839,3.415-17.993,2.627,14.315-4.071,14.315-4.071-9.85-4.2-12.477-8.405,16.154,1.313,16.154,1.313-8.537-11.295-10.375-15.1,12.871,7.749,12.871,7.749Z"/>
      </g>
      <g id="Group_20" data-name="Group 20" transform="matrix(0.788, -0.616, 0.616, 0.788, -409.638, 726.942)">
        <path id="Path_12-9" data-name="Path 12" class="cls-11" d="M20,0C31.046,0,40,12.536,40,28S30.938,51.647,19.892,51.647,0,43.464,0,28,8.954,0,20,0Z" transform="matrix(0.485, -0.875, 0.875, 0.485, 468.814, 384.918)"/>
        <path id="Path_11-9" data-name="Path 11" class="cls-3" d="M519.033,369.312s5.122,3.415,6.961,7.092,3.021,11.82,3.021,11.82,5.122,3.021,3.677,6.173a13.837,13.837,0,0,1-3.677,4.859s-9.981-.394-9.325,0-1.839,3.415-17.993,2.627,14.315-4.071,14.315-4.071-9.85-4.2-12.477-8.405,16.154,1.313,16.154,1.313-8.537-11.295-10.375-15.1,12.871,7.749,12.871,7.749Z"/>
      </g>
      <g id="Group_21" data-name="Group 21" transform="translate(-353.321 559.466) rotate(-29)">
        <path id="Path_12-10" data-name="Path 12" class="cls-11" d="M20,0C31.046,0,40,12.536,40,28S30.938,51.647,19.892,51.647,0,43.464,0,28,8.954,0,20,0Z" transform="matrix(0.485, -0.875, 0.875, 0.485, 468.814, 384.918)"/>
        <path id="Path_11-10" data-name="Path 11" class="cls-3" d="M519.033,369.312s5.122,3.415,6.961,7.092,3.021,11.82,3.021,11.82,5.122,3.021,3.677,6.173a13.837,13.837,0,0,1-3.677,4.859s-9.981-.394-9.325,0-1.839,3.415-17.993,2.627,14.315-4.071,14.315-4.071-9.85-4.2-12.477-8.405,16.154,1.313,16.154,1.313-8.537-11.295-10.375-15.1,12.871,7.749,12.871,7.749Z"/>
      </g>
      <g id="Group_22" data-name="Group 22" transform="translate(-328.321 629.466) rotate(-29)">
        <path id="Path_12-11" data-name="Path 12" class="cls-11" d="M20,0C31.046,0,40,12.536,40,28S30.938,51.647,19.892,51.647,0,43.464,0,28,8.954,0,20,0Z" transform="matrix(0.485, -0.875, 0.875, 0.485, 468.814, 384.918)"/>
        <path id="Path_11-11" data-name="Path 11" class="cls-3" d="M519.033,369.312s5.122,3.415,6.961,7.092,3.021,11.82,3.021,11.82,5.122,3.021,3.677,6.173a13.837,13.837,0,0,1-3.677,4.859s-9.981-.394-9.325,0-1.839,3.415-17.993,2.627,14.315-4.071,14.315-4.071-9.85-4.2-12.477-8.405,16.154,1.313,16.154,1.313-8.537-11.295-10.375-15.1,12.871,7.749,12.871,7.749Z"/>
      </g>
      <g id="Group_37" data-name="Group 37" transform="translate(-101 221)">
        <g id="Group_25" data-name="Group 25">
          <path id="Path_13-2" data-name="Path 13" class="cls-6" d="M551.515,402.786S652.943,433.995,696.83,504.7,729.5,624.173,729.5,624.173"/>
          <path id="Path_14-2" data-name="Path 14" class="cls-6" d="M557.854,430.582s95.089,3.413,138.976,74.12S729.5,624.173,729.5,624.173"/>
          <path id="Path_15-2" data-name="Path 15" class="cls-6" d="M551.515,473.981s105.329-26.332,149.216,44.375S729.5,624.173,729.5,624.173"/>
        </g>
        <g id="Group_36" data-name="Group 36">
          <path id="Path_12-12" data-name="Path 12" class="cls-11" d="M20,0C31.046,0,40,12.536,40,28S30.938,51.647,19.892,51.647,0,43.464,0,28,8.954,0,20,0Z" transform="matrix(0.485, -0.875, 0.875, 0.485, 468.814, 384.918)"/>
          <path id="Path_11-12" data-name="Path 11" class="cls-3" d="M519.033,369.312s5.122,3.415,6.961,7.092,3.021,11.82,3.021,11.82,5.122,3.021,3.677,6.173a13.837,13.837,0,0,1-3.677,4.859s-9.981-.394-9.325,0-1.839,3.415-17.993,2.627,14.315-4.071,14.315-4.071-9.85-4.2-12.477-8.405,16.154,1.313,16.154,1.313-8.537-11.295-10.375-15.1,12.871,7.749,12.871,7.749Z"/>
        </g>
        <g id="Group_35" data-name="Group 35" transform="translate(-138.993 142.951) rotate(-13)">
          <path id="Path_12-13" data-name="Path 12" class="cls-11" d="M20,0C31.046,0,40,12.536,40,28S30.938,51.647,19.892,51.647,0,43.464,0,28,8.954,0,20,0Z" transform="matrix(0.485, -0.875, 0.875, 0.485, 468.814, 384.918)"/>
          <path id="Path_11-13" data-name="Path 11" class="cls-3" d="M519.033,369.312s5.122,3.415,6.961,7.092,3.021,11.82,3.021,11.82,5.122,3.021,3.677,6.173a13.837,13.837,0,0,1-3.677,4.859s-9.981-.394-9.325,0-1.839,3.415-17.993,2.627,14.315-4.071,14.315-4.071-9.85-4.2-12.477-8.405,16.154,1.313,16.154,1.313-8.537-11.295-10.375-15.1,12.871,7.749,12.871,7.749Z"/>
        </g>
        <g id="Group_32" data-name="Group 32" transform="translate(-123.091 386.213) rotate(-33)">
          <path id="Path_12-14" data-name="Path 12" class="cls-11" d="M20,0C31.046,0,40,12.536,40,28S30.938,51.647,19.892,51.647,0,43.464,0,28,8.954,0,20,0Z" transform="matrix(0.485, -0.875, 0.875, 0.485, 468.814, 384.918)"/>
          <path id="Path_11-14" data-name="Path 11" class="cls-3" d="M519.033,369.312s5.122,3.415,6.961,7.092,3.021,11.82,3.021,11.82,5.122,3.021,3.677,6.173a13.837,13.837,0,0,1-3.677,4.859s-9.981-.394-9.325,0-1.839,3.415-17.993,2.627,14.315-4.071,14.315-4.071-9.85-4.2-12.477-8.405,16.154,1.313,16.154,1.313-8.537-11.295-10.375-15.1,12.871,7.749,12.871,7.749Z"/>
        </g>
        <g id="Group_30" data-name="Group 30" transform="matrix(0.225, -0.974, 0.974, 0.225, 39.167, 904.729)">
          <path id="Path_12-15" data-name="Path 12" class="cls-11" d="M20,0C31.046,0,40,12.536,40,28S30.938,51.647,19.892,51.647,0,43.464,0,28,8.954,0,20,0Z" transform="matrix(0.485, -0.875, 0.875, 0.485, 468.814, 384.918)"/>
          <path id="Path_11-15" data-name="Path 11" class="cls-3" d="M519.033,369.312s5.122,3.415,6.961,7.092,3.021,11.82,3.021,11.82,5.122,3.021,3.677,6.173a13.837,13.837,0,0,1-3.677,4.859s-9.981-.394-9.325,0-1.839,3.415-17.993,2.627,14.315-4.071,14.315-4.071-9.85-4.2-12.477-8.405,16.154,1.313,16.154,1.313-8.537-11.295-10.375-15.1,12.871,7.749,12.871,7.749Z"/>
        </g>
        <g id="Group_31" data-name="Group 31" transform="matrix(0.5, -0.866, 0.866, 0.5, -112.494, 733.935)">
          <path id="Path_12-16" data-name="Path 12" class="cls-11" d="M20,0C31.046,0,40,12.536,40,28S30.938,51.647,19.892,51.647,0,43.464,0,28,8.954,0,20,0Z" transform="matrix(0.485, -0.875, 0.875, 0.485, 468.814, 384.918)"/>
          <path id="Path_11-16" data-name="Path 11" class="cls-3" d="M519.033,369.312s5.122,3.415,6.961,7.092,3.021,11.82,3.021,11.82,5.122,3.021,3.677,6.173a13.837,13.837,0,0,1-3.677,4.859s-9.981-.394-9.325,0-1.839,3.415-17.993,2.627,14.315-4.071,14.315-4.071-9.85-4.2-12.477-8.405,16.154,1.313,16.154,1.313-8.537-11.295-10.375-15.1,12.871,7.749,12.871,7.749Z"/>
        </g>
        <g id="Group_29" data-name="Group 29" transform="translate(-49.1 901.106) rotate(-72)">
          <path id="Path_12-17" data-name="Path 12" class="cls-11" d="M20,0C31.046,0,40,12.536,40,28S30.938,51.647,19.892,51.647,0,43.464,0,28,8.954,0,20,0Z" transform="matrix(0.485, -0.875, 0.875, 0.485, 468.814, 384.918)"/>
          <path id="Path_11-17" data-name="Path 11" class="cls-3" d="M519.033,369.312s5.122,3.415,6.961,7.092,3.021,11.82,3.021,11.82,5.122,3.021,3.677,6.173a13.837,13.837,0,0,1-3.677,4.859s-9.981-.394-9.325,0-1.839,3.415-17.993,2.627,14.315-4.071,14.315-4.071-9.85-4.2-12.477-8.405,16.154,1.313,16.154,1.313-8.537-11.295-10.375-15.1,12.871,7.749,12.871,7.749Z"/>
        </g>
        <g id="Group_28" data-name="Group 28" transform="matrix(0.515, -0.857, 0.857, 0.515, -188.664, 787.782)">
          <path id="Path_12-18" data-name="Path 12" class="cls-11" d="M20,0C31.046,0,40,12.536,40,28S30.938,51.647,19.892,51.647,0,43.464,0,28,8.954,0,20,0Z" transform="matrix(0.485, -0.875, 0.875, 0.485, 468.814, 384.918)"/>
          <path id="Path_11-18" data-name="Path 11" class="cls-3" d="M519.033,369.312s5.122,3.415,6.961,7.092,3.021,11.82,3.021,11.82,5.122,3.021,3.677,6.173a13.837,13.837,0,0,1-3.677,4.859s-9.981-.394-9.325,0-1.839,3.415-17.993,2.627,14.315-4.071,14.315-4.071-9.85-4.2-12.477-8.405,16.154,1.313,16.154,1.313-8.537-11.295-10.375-15.1,12.871,7.749,12.871,7.749Z"/>
        </g>
        <g id="Group_33" data-name="Group 33" transform="translate(-192.039 407.105) rotate(-33)">
          <path id="Path_12-19" data-name="Path 12" class="cls-11" d="M20,0C31.046,0,40,12.536,40,28S30.938,51.647,19.892,51.647,0,43.464,0,28,8.954,0,20,0Z" transform="matrix(0.485, -0.875, 0.875, 0.485, 468.814, 384.918)"/>
          <path id="Path_11-19" data-name="Path 11" class="cls-3" d="M519.033,369.312s5.122,3.415,6.961,7.092,3.021,11.82,3.021,11.82,5.122,3.021,3.677,6.173a13.837,13.837,0,0,1-3.677,4.859s-9.981-.394-9.325,0-1.839,3.415-17.993,2.627,14.315-4.071,14.315-4.071-9.85-4.2-12.477-8.405,16.154,1.313,16.154,1.313-8.537-11.295-10.375-15.1,12.871,7.749,12.871,7.749Z"/>
        </g>
        <g id="Group_26" data-name="Group 26" transform="matrix(0.788, -0.616, 0.616, 0.788, -308.638, 505.942)">
          <path id="Path_12-20" data-name="Path 12" class="cls-11" d="M20,0C31.046,0,40,12.536,40,28S30.938,51.647,19.892,51.647,0,43.464,0,28,8.954,0,20,0Z" transform="matrix(0.485, -0.875, 0.875, 0.485, 468.814, 384.918)"/>
          <path id="Path_11-20" data-name="Path 11" class="cls-3" d="M519.033,369.312s5.122,3.415,6.961,7.092,3.021,11.82,3.021,11.82,5.122,3.021,3.677,6.173a13.837,13.837,0,0,1-3.677,4.859s-9.981-.394-9.325,0-1.839,3.415-17.993,2.627,14.315-4.071,14.315-4.071-9.85-4.2-12.477-8.405,16.154,1.313,16.154,1.313-8.537-11.295-10.375-15.1,12.871,7.749,12.871,7.749Z"/>
        </g>
        <g id="Group_34" data-name="Group 34" transform="translate(-252.321 338.466) rotate(-29)">
          <path id="Path_12-21" data-name="Path 12" class="cls-11" d="M20,0C31.046,0,40,12.536,40,28S30.938,51.647,19.892,51.647,0,43.464,0,28,8.954,0,20,0Z" transform="matrix(0.485, -0.875, 0.875, 0.485, 468.814, 384.918)"/>
          <path id="Path_11-21" data-name="Path 11" class="cls-3" d="M519.033,369.312s5.122,3.415,6.961,7.092,3.021,11.82,3.021,11.82,5.122,3.021,3.677,6.173a13.837,13.837,0,0,1-3.677,4.859s-9.981-.394-9.325,0-1.839,3.415-17.993,2.627,14.315-4.071,14.315-4.071-9.85-4.2-12.477-8.405,16.154,1.313,16.154,1.313-8.537-11.295-10.375-15.1,12.871,7.749,12.871,7.749Z"/>
        </g>
        <g id="Group_27" data-name="Group 27" transform="translate(-227.321 408.466) rotate(-29)">
          <path id="Path_12-22" data-name="Path 12" class="cls-11" d="M20,0C31.046,0,40,12.536,40,28S30.938,51.647,19.892,51.647,0,43.464,0,28,8.954,0,20,0Z" transform="matrix(0.485, -0.875, 0.875, 0.485, 468.814, 384.918)"/>
          <path id="Path_11-22" data-name="Path 11" class="cls-3" d="M519.033,369.312s5.122,3.415,6.961,7.092,3.021,11.82,3.021,11.82,5.122,3.021,3.677,6.173a13.837,13.837,0,0,1-3.677,4.859s-9.981-.394-9.325,0-1.839,3.415-17.993,2.627,14.315-4.071,14.315-4.071-9.85-4.2-12.477-8.405,16.154,1.313,16.154,1.313-8.537-11.295-10.375-15.1,12.871,7.749,12.871,7.749Z"/>
        </g>
      </g>
      <g id="Group_38" data-name="Group 38" transform="matrix(-0.469, 0.883, -0.883, -0.469, 1776.212, 271.66)">
        <g id="Group_25-2" data-name="Group 25" transform="translate(551.515 349.933)">
          <path id="Path_13-3" data-name="Path 13" class="cls-6" d="M551.515,622.257S652.943,591.319,696.83,521.223,729.5,402.786,729.5,402.786" transform="translate(-551.515 -402.786)"/>
          <path id="Path_14-3" data-name="Path 14" class="cls-6" d="M557.854,622.5s95.089-3.384,138.976-73.479S729.5,430.581,729.5,430.581" transform="translate(-551.515 -430.581)"/>
          <path id="Path_15-3" data-name="Path 15" class="cls-6" d="M551.515,618.075s105.329,26.1,149.216-43.991,28.77-104.9,28.77-104.9" transform="translate(-551.515 -469.183)"/>
        </g>
        <g id="Group_36-2" data-name="Group 36" transform="translate(468.814 562.296)">
          <path id="Path_12-23" data-name="Path 12" class="cls-16" d="M19.868,51.615C30.84,51.575,39.781,39.032,39.838,23.6S30.923.033,19.95.074.159,8.313.1,23.746,8.9,51.656,19.868,51.615Z" transform="matrix(0.485, 0.875, -0.875, 0.485, 45.208, -0.237)"/>
          <path id="Path_11-23" data-name="Path 11" class="cls-3" d="M519.033,401.731s5.122-3.385,6.961-7.031,3.021-11.718,3.021-11.718,5.122-2.995,3.677-6.119a13.74,13.74,0,0,0-3.677-4.817s-9.981.391-9.325,0-1.839-3.385-17.993-2.6,14.315,4.036,14.315,4.036-9.85,4.166-12.477,8.333,16.154-1.3,16.154-1.3-8.537,11.2-10.375,14.973,12.871-7.682,12.871-7.682Z" transform="translate(-468.814 -361.438)"/>
        </g>
        <g id="Group_35-2" data-name="Group 35" transform="translate(409.943 535.401) rotate(13)">
          <path id="Path_12-24" data-name="Path 12" class="cls-16" d="M19.84,51.659c10.957-.025,19.869-12.574,19.9-28.027S30.809.021,19.852.046.1,8.269.064,23.723,8.883,51.684,19.84,51.659Z" transform="matrix(0.485, 0.875, -0.875, 0.485, 45.288, -0.111)"/>
          <path id="Path_11-24" data-name="Path 11" class="cls-3" d="M22.049,32.459s5.126-3.4,6.971-7.047,3.042-11.729,3.042-11.729,5.125-3.006,3.688-6.129a13.669,13.669,0,0,0-3.667-4.812s-9.978.41-9.321.018S20.931-.623,4.782.189,19.084,4.2,19.084,4.2,9.23,8.386,6.6,12.56s16.15-1.333,16.15-1.333-8.554,11.218-10.4,15,12.88-7.71,12.88-7.71Z" transform="translate(28.184 7.879)"/>
        </g>
        <g id="Group_32-2" data-name="Group 32" transform="matrix(0.839, 0.545, -0.545, 0.839, 493.308, 497.772)">
          <path id="Path_12-25" data-name="Path 12" class="cls-16" d="M19.828,51.681c10.951.007,19.82-12.523,19.811-27.987S30.641.043,19.69.036-.026,8.207-.017,23.67,8.877,51.674,19.828,51.681Z" transform="matrix(0.485, 0.875, -0.875, 0.485, 45.329, 0.092)"/>
          <path id="Path_11-25" data-name="Path 11" class="cls-3" d="M22,32.557s5.122-3.414,6.971-7.076,3.06-11.76,3.06-11.76,5.121-3.023,3.692-6.15a13.605,13.605,0,0,0-3.649-4.815s-9.957.431-9.3.037S20.955-.594,4.839.253,19.1,4.243,19.1,4.243s-9.841,4.216-12.478,8.4,16.118-1.369,16.118-1.369-8.56,11.26-10.409,15.053S25.2,18.578,25.2,18.578Z" transform="translate(28.164 7.896)"/>
        </g>
        <g id="Group_30-2" data-name="Group 30" transform="translate(544.171 433.09) rotate(77)">
          <path id="Path_12-26" data-name="Path 12" class="cls-16" d="M19.923,51.658c11,.048,19.869-12.39,19.8-27.78S30.6.305,19.593.258-.187,8.316-.12,23.706,8.92,51.611,19.923,51.658Z" transform="matrix(0.485, 0.875, -0.875, 0.485, 45.173, 0.148)"/>
          <path id="Path_11-26" data-name="Path 11" class="cls-3" d="M21.878,32.714s5.086-3.423,6.917-7.1,3.018-11.821,3.018-11.821,5.086-3.029,3.659-6.177a13.736,13.736,0,0,0-3.638-4.85s-9.9.413-9.248.018S20.769-.629,4.746.19s14.19,4.042,14.19,4.042-9.777,4.22-12.39,8.425S22.57,11.314,22.57,11.314,14.082,22.62,12.251,26.431s12.78-7.77,12.78-7.77Z" transform="translate(27.966 7.94)"/>
        </g>
        <g id="Group_31-2" data-name="Group 31" transform="translate(477.044 440.093) rotate(60)">
          <path id="Path_12-27" data-name="Path 12" class="cls-16" d="M19.873,51.758C30.848,51.8,39.7,39.327,39.639,23.9S30.544.271,19.569.229-.166,8.317-.107,23.746,8.9,51.716,19.873,51.758Z" transform="matrix(0.485, 0.875, -0.875, 0.485, 45.333, 0.171)"/>
          <path id="Path_11-27" data-name="Path 11" class="cls-3" d="M21.916,32.683s5.1-3.426,6.942-7.1S31.9,13.774,31.9,13.774,37,10.741,35.58,7.6a13.648,13.648,0,0,0-3.635-4.835S22.026,3.2,22.68,2.8,20.866-.6,4.814.247,19.021,4.256,19.021,4.256,9.22,8.487,6.594,12.69s16.054-1.371,16.054-1.371-8.524,11.3-10.365,15.11S25.1,18.649,25.1,18.649Z" transform="translate(28.05 7.927)"/>
        </g>
        <g id="Group_29-2" data-name="Group 29" transform="matrix(0.309, 0.951, -0.951, 0.309, 485.773, 391.623)">
          <path id="Path_12-28" data-name="Path 12" class="cls-16" d="M19.907,51.7c10.995.048,19.853-12.4,19.787-27.8S30.572.306,19.578.258-.188,8.323-.121,23.725,8.913,51.651,19.907,51.7Z" transform="matrix(0.485, 0.875, -0.875, 0.485, 45.23, 0.161)"/>
          <path id="Path_11-28" data-name="Path 11" class="cls-3" d="M21.886,32.71s5.091-3.425,6.924-7.1,3.027-11.818,3.027-11.818,5.09-3.031,3.664-6.177a13.706,13.706,0,0,0-3.636-4.846s-9.9.419-9.252.024S20.8-.619,4.769.21,18.962,4.241,18.962,4.241s-9.784,4.224-12.4,8.43,16.031-1.353,16.031-1.353-8.5,11.307-10.333,15.117,12.79-7.775,12.79-7.775Z" transform="translate(27.989 7.938)"/>
        </g>
        <g id="Group_28-2" data-name="Group 28" transform="translate(404.289 376.474) rotate(59)">
          <path id="Path_12-29" data-name="Path 12" class="cls-16" d="M19.87,51.76C30.844,51.8,39.694,39.326,39.636,23.9S30.544.266,19.57.224-.163,8.315-.1,23.746,8.9,51.719,19.87,51.76Z" transform="matrix(0.485, 0.875, -0.875, 0.485, 45.339, 0.171)"/>
          <path id="Path_11-29" data-name="Path 11" class="cls-3" d="M21.919,32.68s5.1-3.426,6.944-7.1,3.047-11.8,3.047-11.8,5.1-3.033,3.678-6.173a13.644,13.644,0,0,0-3.635-4.834s-9.919.431-9.265.036S20.871-.6,4.817.25,19.026,4.257,19.026,4.257,9.223,8.488,6.6,12.691s16.057-1.372,16.057-1.372-8.526,11.3-10.367,15.108S25.1,18.647,25.1,18.647Z" transform="translate(28.055 7.926)"/>
        </g>
        <g id="Group_33-2" data-name="Group 33" transform="matrix(0.839, 0.545, -0.545, 0.839, 424.36, 477.061)">
          <path id="Path_12-30" data-name="Path 12" class="cls-16" d="M19.828,51.681c10.951.007,19.82-12.523,19.811-27.987S30.641.043,19.69.036-.026,8.207-.017,23.67,8.877,51.674,19.828,51.681Z" transform="matrix(0.485, 0.875, -0.875, 0.485, 45.329, 0.092)"/>
          <path id="Path_11-30" data-name="Path 11" class="cls-3" d="M22,32.557s5.122-3.414,6.971-7.076,3.06-11.76,3.06-11.76,5.121-3.022,3.692-6.15a13.606,13.606,0,0,0-3.649-4.815s-9.957.431-9.3.037S20.955-.594,4.839.253,19.1,4.243,19.1,4.243s-9.841,4.216-12.478,8.4,16.118-1.369,16.118-1.369S14.182,22.537,12.333,26.33,25.2,18.578,25.2,18.578Z" transform="translate(28.164 7.896)"/>
        </g>
        <g id="Group_26-2" data-name="Group 26" transform="translate(313.155 432.65) rotate(38)">
          <path id="Path_12-31" data-name="Path 12" class="cls-16" d="M19.831,51.716c10.952.015,19.814-12.507,19.794-27.967S30.608.095,19.656.08-.058,8.235-.037,23.7,8.879,51.7,19.831,51.716Z" transform="matrix(0.485, 0.875, -0.875, 0.485, 45.356, 0.116)"/>
          <path id="Path_11-31" data-name="Path 11" class="cls-3" d="M21.987,32.584s5.12-3.418,6.968-7.083,3.06-11.769,3.06-11.769,5.118-3.026,3.691-6.155a13.6,13.6,0,0,0-3.645-4.818s-9.95.434-9.294.039S20.948-.591,4.844.261,19.1,4.25,19.1,4.25,9.26,8.472,6.624,12.663s16.107-1.374,16.107-1.374-8.556,11.27-10.4,15.066,12.861-7.761,12.861-7.761Z" transform="translate(28.149 7.902)"/>
        </g>
        <g id="Group_34-2" data-name="Group 34" transform="translate(356.386 502.719) rotate(29)">
          <path id="Path_12-32" data-name="Path 12" class="cls-16" d="M19.827,51.647c10.95,0,19.827-12.536,19.827-28S30.671,0,19.72,0,0,8.183,0,23.647,8.877,51.647,19.827,51.647Z" transform="matrix(0.485, 0.875, -0.875, 0.485, 45.3, 0.071)"/>
          <path id="Path_11-32" data-name="Path 11" class="cls-3" d="M22.014,32.536s5.124-3.411,6.973-7.071,3.058-11.753,3.058-11.753,5.123-3.019,3.693-6.145a13.612,13.612,0,0,0-3.652-4.814s-9.962.428-9.306.034S20.957-.6,4.833.244,19.1,4.236,19.1,4.236s-9.845,4.211-12.482,8.4,16.126-1.364,16.126-1.364-8.561,11.251-10.41,15.042,12.873-7.745,12.873-7.745Z" transform="translate(28.174 7.892)"/>
        </g>
        <g id="Group_27-2" data-name="Group 27" transform="translate(381.386 433.324) rotate(29)">
          <path id="Path_12-33" data-name="Path 12" class="cls-16" d="M19.827,51.647c10.95,0,19.827-12.536,19.827-28S30.671,0,19.72,0,0,8.183,0,23.647,8.877,51.647,19.827,51.647Z" transform="matrix(0.485, 0.875, -0.875, 0.485, 45.3, 0.071)"/>
          <path id="Path_11-33" data-name="Path 11" class="cls-3" d="M22.014,32.536s5.124-3.411,6.973-7.071,3.058-11.753,3.058-11.753,5.123-3.019,3.693-6.145a13.612,13.612,0,0,0-3.652-4.814s-9.962.428-9.306.034S20.957-.6,4.833.244,19.1,4.236,19.1,4.236s-9.845,4.211-12.482,8.4,16.126-1.364,16.126-1.364-8.561,11.251-10.41,15.042,12.873-7.745,12.873-7.745Z" transform="translate(28.174 7.892)"/>
        </g>
      </g>
      <path id="Path_20" data-name="Path 20" class="cls-17" d="M1265.152,437.92s37.075-26.725,43.364-25.437" transform="translate(-99 217.679)"/>
      <path id="Path_21" data-name="Path 21" class="cls-3" d="M17.339,0c9.576,0,2.885,7.767,2.885,17.708S26.914,36,17.339,36,0,27.941,0,18,7.763,0,17.339,0Z" transform="translate(1198.005 615.631) rotate(-18)"/>
      <path id="Path_22" data-name="Path 22" class="cls-18" d="M1472.823,299.609s-9.843-35.067-38.758-25.224-35.682,33.222-35.682,33.222-79.363,31.991-78.132,82.439,59.676,58.445,88.591,52.908,19.072-10.459,83.054-6.152c10.263.691,9.3-7.191,11.689-11.074,3.186-5.15,6.326-7.812,6.152-12.3-.4-10.474-3.076-12.92-3.076-12.92s-48.6-20.3-111.354-10.459,6.581-3.444,6.581-3.444,91.6-8.373,104.773,6.917,34.115-41.5,3.076-52.421c-2.437-.857.929-8.7,0-10.921-3.081-7.3-1.575-14.914-6.152-20.75C1494.749,298.164,1472.823,299.609,1472.823,299.609Z" transform="translate(-101 221)"/>
    </g>
  </g>
</svg>
