<svg width="24" height="24" viewBox="0 0 24 24" fill="none" xmlns="http://www.w3.org/2000/svg">
<path d="M1.9939 12C1.9939 10.1867 2.44058 8.51334 3.3339 6.98C4.22724 5.44666 5.44058 4.23334 6.9739 3.34C8.50724 2.44666 10.1806 2 11.9939 2C13.8072 2 15.4806 2.44666 17.0139 3.34C18.5472 4.23334 19.7606 5.44666 20.6539 6.98C21.5472 8.51334 21.9939 10.1867 21.9939 12C21.9939 13.8133 21.5472 15.4867 20.6539 17.02C19.7606 18.5533 18.5472 19.7667 17.0139 20.66C15.4806 21.5533 13.8072 22 11.9939 22C10.1806 22 8.50724 21.5533 6.9739 20.66C5.44058 19.7667 4.22724 18.5533 3.3339 17.02C2.44058 15.4867 1.9939 13.8133 1.9939 12ZM3.6539 12C3.6539 14.08 4.3539 15.9133 5.7539 17.5C6.3939 16.2467 7.40724 15.0533 8.7939 13.92C10.1806 12.7867 11.5339 12.0733 12.8539 11.78C12.6539 11.3133 12.4606 10.8933 12.2739 10.52C9.98058 11.2533 7.50058 11.62 4.8339 11.62C4.3139 11.62 3.92724 11.6133 3.6739 11.6C3.6739 11.6533 3.67058 11.72 3.6639 11.8C3.65724 11.88 3.6539 11.9467 3.6539 12ZM3.9139 9.94C4.20724 9.96666 4.64058 9.98 5.2139 9.98C7.44058 9.98 9.5539 9.68 11.5539 9.08C10.5406 7.28 9.42724 5.78 8.2139 4.58C7.16058 5.11334 6.25724 5.85334 5.5039 6.8C4.75058 7.74666 4.22058 8.79334 3.9139 9.94ZM6.8939 18.58C8.40058 19.7533 10.1006 20.34 11.9939 20.34C12.9806 20.34 13.9606 20.1533 14.9339 19.78C14.6672 17.5 14.1472 15.2933 13.3739 13.16C12.1472 13.4267 10.9106 14.1 9.6639 15.18C8.41724 16.26 7.4939 17.3933 6.8939 18.58ZM9.9539 3.94C11.1272 5.15334 12.2139 6.66666 13.2139 8.48C15.0272 7.72 16.3939 6.75334 17.3139 5.58C15.7672 4.3 13.9939 3.66 11.9939 3.66C11.3139 3.66 10.6339 3.75334 9.9539 3.94ZM13.9339 9.9C14.1339 10.3267 14.3606 10.8667 14.6139 11.52C15.6006 11.4267 16.6739 11.38 17.8339 11.38C18.6606 11.38 19.4806 11.4 20.2939 11.44C20.1872 9.62666 19.5339 8.01334 18.3339 6.6C17.4672 7.89334 16.0006 8.99334 13.9339 9.9ZM15.1139 12.92C15.7939 14.8933 16.2539 16.92 16.4939 19C17.5472 18.32 18.4072 17.4467 19.0739 16.38C19.7406 15.3133 20.1406 14.16 20.2739 12.92C19.3006 12.8533 18.4139 12.82 17.6139 12.82C16.8806 12.82 16.0472 12.8533 15.1139 12.92Z" fill="black"/>
</svg>
