<svg width="189" height="68" viewBox="0 0 189 68" fill="none" xmlns="http://www.w3.org/2000/svg">
<rect x="3.35107" y="8.89221" width="184.712" height="59.1078" fill="#FFF50F"/>
<rect x="3.35107" y="8.89221" width="184.712" height="59.1078" fill="#FFF50F"/>
<mask id="path-4-outside-1" maskUnits="userSpaceOnUse" x="111.267" y="15.2883" width="32" height="45" fill="black">
<rect fill="white" x="111.267" y="15.2883" width="32" height="45"/>
<path fill-rule="evenodd" clip-rule="evenodd" d="M117.633 17.2883V17.2885H113.267V53.1502H113.267V59.0021H113.267V59.0023H119.119V59.0021H141.926V53.1502H119.119V23.1402H141.926V17.2883H117.633ZM125.313 41.1462V35.2942H140.919V41.1462H125.313Z"/>
</mask>
<path fill-rule="evenodd" clip-rule="evenodd" d="M117.633 17.2883V17.2885H113.267V53.1502H113.267V59.0021H113.267V59.0023H119.119V59.0021H141.926V53.1502H119.119V23.1402H141.926V17.2883H117.633ZM125.313 41.1462V35.2942H140.919V41.1462H125.313Z" fill="black"/>
<path d="M117.633 17.2885V18.4639H118.808V17.2885H117.633ZM117.633 17.2883V16.1128H116.457V17.2883H117.633ZM113.267 17.2885V16.1131H112.092V17.2885H113.267ZM113.267 53.1502V54.3256H114.443V53.1502H113.267ZM113.267 53.1502V51.9747H112.091V53.1502H113.267ZM113.267 59.0021H112.091V60.1775H113.267V59.0021ZM113.267 59.0021H114.443V57.8267H113.267V59.0021ZM113.267 59.0023H112.092V60.1778H113.267V59.0023ZM119.119 59.0023V60.1778H120.294V59.0023H119.119ZM119.119 59.0021V57.8267H117.944V59.0021H119.119ZM141.926 59.0021V60.1775H143.102V59.0021H141.926ZM141.926 53.1502H143.102V51.9747H141.926V53.1502ZM119.119 53.1502H117.944V54.3256H119.119V53.1502ZM119.119 23.1402V21.9648H117.944V23.1402H119.119ZM141.926 23.1402V24.3156H143.102V23.1402H141.926ZM141.926 17.2883H143.102V16.1128H141.926V17.2883ZM125.313 35.2942V34.1188H124.138V35.2942H125.313ZM125.313 41.1462H124.138V42.3216H125.313V41.1462ZM140.919 35.2942H142.094V34.1188H140.919V35.2942ZM140.919 41.1462V42.3216H142.094V41.1462H140.919ZM118.808 17.2885V17.2883H116.457V17.2885H118.808ZM113.267 18.4639H117.633V16.1131H113.267V18.4639ZM114.443 53.1502V17.2885H112.092V53.1502H114.443ZM113.267 54.3256H113.267V51.9747H113.267V54.3256ZM114.442 59.0021V53.1502H112.091V59.0021H114.442ZM113.267 57.8267H113.267V60.1775H113.267V57.8267ZM114.443 59.0023V59.0021H112.092V59.0023H114.443ZM119.119 57.8269H113.267V60.1778H119.119V57.8269ZM117.944 59.0021V59.0023H120.294V59.0021H117.944ZM141.926 57.8267H119.119V60.1775H141.926V57.8267ZM140.751 53.1502V59.0021H143.102V53.1502H140.751ZM119.119 54.3256H141.926V51.9747H119.119V54.3256ZM117.944 23.1402V53.1502H120.294V23.1402H117.944ZM141.926 21.9648H119.119V24.3156H141.926V21.9648ZM140.751 17.2883V23.1402H143.102V17.2883H140.751ZM117.633 18.4637H141.926V16.1128H117.633V18.4637ZM124.138 35.2942V41.1462H126.489V35.2942H124.138ZM140.919 34.1188H125.313V36.4697H140.919V34.1188ZM142.094 41.1462V35.2942H139.743V41.1462H142.094ZM125.313 42.3216H140.919V39.9707H125.313V42.3216Z" fill="black" mask="url(#path-4-outside-1)"/>
<mask id="path-6-outside-2" maskUnits="userSpaceOnUse" x="11.4258" y="15.2882" width="32" height="45" fill="black">
<rect fill="white" x="11.4258" y="15.2882" width="32" height="45"/>
<path fill-rule="evenodd" clip-rule="evenodd" d="M17.7917 17.2882V17.2887H13.4263V53.1501H13.4258V59.002H13.4263V59.0025H19.2783V59.002H42.0853V53.1501H19.2783V23.1401H42.0853V17.2882H17.7917ZM25.4726 41.1461V35.2942H41.0778V41.1461H25.4726Z"/>
</mask>
<path fill-rule="evenodd" clip-rule="evenodd" d="M17.7917 17.2882V17.2887H13.4263V53.1501H13.4258V59.002H13.4263V59.0025H19.2783V59.002H42.0853V53.1501H19.2783V23.1401H42.0853V17.2882H17.7917ZM25.4726 41.1461V35.2942H41.0778V41.1461H25.4726Z" fill="black"/>
<path d="M17.7917 17.2887V18.4641H18.9671V17.2887H17.7917ZM17.7917 17.2882V16.1128H16.6163V17.2882H17.7917ZM13.4263 17.2887V16.1132H12.2509V17.2887H13.4263ZM13.4263 53.1501V54.3255H14.6018V53.1501H13.4263ZM13.4258 53.1501V51.9747H12.2503V53.1501H13.4258ZM13.4258 59.002H12.2503V60.1775H13.4258V59.002ZM13.4263 59.002H14.6018V57.8266H13.4263V59.002ZM13.4263 59.0025H12.2509V60.1779H13.4263V59.0025ZM19.2783 59.0025V60.1779H20.4537V59.0025H19.2783ZM19.2783 59.002V57.8266H18.1028V59.002H19.2783ZM42.0853 59.002V60.1775H43.2607V59.002H42.0853ZM42.0853 53.1501H43.2607V51.9747H42.0853V53.1501ZM19.2783 53.1501H18.1028V54.3255H19.2783V53.1501ZM19.2783 23.1401V21.9647H18.1028V23.1401H19.2783ZM42.0853 23.1401V24.3156H43.2608V23.1401H42.0853ZM42.0853 17.2882H43.2608V16.1128H42.0853V17.2882ZM25.4726 35.2942V34.1187H24.2972V35.2942H25.4726ZM25.4726 41.1461H24.2972V42.3215H25.4726V41.1461ZM41.0778 35.2942H42.2532V34.1187H41.0778V35.2942ZM41.0778 41.1461V42.3215H42.2532V41.1461H41.0778ZM18.9671 17.2887V17.2882H16.6163V17.2887H18.9671ZM13.4263 18.4641H17.7917V16.1132H13.4263V18.4641ZM14.6018 53.1501V17.2887H12.2509V53.1501H14.6018ZM13.4258 54.3255H13.4263V51.9747H13.4258V54.3255ZM14.6012 59.002V53.1501H12.2503V59.002H14.6012ZM13.4263 57.8266H13.4258V60.1775H13.4263V57.8266ZM14.6018 59.0025V59.002H12.2509V59.0025H14.6018ZM19.2783 57.8271H13.4263V60.1779H19.2783V57.8271ZM18.1028 59.002V59.0025H20.4537V59.002H18.1028ZM42.0853 57.8266H19.2783V60.1775H42.0853V57.8266ZM40.9098 53.1501V59.002H43.2607V53.1501H40.9098ZM19.2783 54.3255H42.0853V51.9747H19.2783V54.3255ZM18.1028 23.1401V53.1501H20.4537V23.1401H18.1028ZM42.0853 21.9647H19.2783V24.3156H42.0853V21.9647ZM40.9099 17.2882V23.1401H43.2608V17.2882H40.9099ZM17.7917 18.4636H42.0853V16.1128H17.7917V18.4636ZM24.2972 35.2942V41.1461H26.6481V35.2942H24.2972ZM41.0778 34.1187H25.4726V36.4696H41.0778V34.1187ZM42.2532 41.1461V35.2942H39.9024V41.1461H42.2532ZM25.4726 42.3215H41.0778V39.9707H25.4726V42.3215Z" fill="black" mask="url(#path-6-outside-2)"/>
<rect x="-0.587719" y="0.587719" width="8.06015" height="42.8195" transform="matrix(1 0 0 -1 88.8945 60.1078)" fill="black" stroke="black" stroke-width="1.17544"/>
<rect x="-0.587719" y="-0.587719" width="7.05263" height="20.4862" transform="matrix(0 1 1 0 88.9185 17.2883)" fill="black" stroke="black" stroke-width="1.17544"/>
<rect x="96.3665" y="59.688" width="8.06015" height="30.7293" transform="rotate(180 96.3665 59.688)" fill="black" stroke="black" stroke-width="1.17544"/>
<rect x="90.993" y="16.7005" width="7.05263" height="15.1128" transform="rotate(90 90.993 16.7005)" fill="black" stroke="black" stroke-width="1.17544"/>
<rect x="-0.587719" y="0.587719" width="7.02738" height="42.8893" transform="matrix(1 0 0 -1 159.414 60.1775)" fill="black" stroke="black" stroke-width="1.17544"/>
<rect x="-0.587719" y="-0.587719" width="7.05263" height="20.4862" transform="matrix(0 1 1 0 159.414 17.2883)" fill="black" stroke="black" stroke-width="1.17544"/>
<rect x="166.851" y="59.6616" width="7.02738" height="42.8893" transform="rotate(180 166.851 59.6616)" fill="black" stroke="black" stroke-width="1.17544"/>
<rect x="161.489" y="16.7005" width="7.05263" height="15.1128" transform="rotate(90 161.489 16.7005)" fill="black" stroke="black" stroke-width="1.17544"/>
<mask id="path-16-outside-3" maskUnits="userSpaceOnUse" x="44.9551" y="15.2882" width="28" height="46" fill="black">
<rect fill="white" x="44.9551" y="15.2882" width="28" height="46"/>
<path fill-rule="evenodd" clip-rule="evenodd" d="M67.9621 17.2882H71.2632V23.1401H67.9622V23.1412C67.9122 23.1407 67.8621 23.1405 67.812 23.1405C59.5448 23.1405 52.807 29.8722 52.807 38.2205C52.807 46.5688 59.5448 53.3005 67.812 53.3005C67.8621 53.3005 67.9122 53.3002 67.9622 53.2997V53.3001H71.2632V59.1521H67.9621V59.1519C67.9121 59.1523 67.8621 59.1524 67.812 59.1524C56.293 59.1524 46.9551 49.7809 46.9551 38.2205C46.9551 26.6601 56.293 17.2886 67.812 17.2886C67.8621 17.2886 67.9121 17.2887 67.9621 17.2891V17.2882Z"/>
</mask>
<path fill-rule="evenodd" clip-rule="evenodd" d="M67.9621 17.2882H71.2632V23.1401H67.9622V23.1412C67.9122 23.1407 67.8621 23.1405 67.812 23.1405C59.5448 23.1405 52.807 29.8722 52.807 38.2205C52.807 46.5688 59.5448 53.3005 67.812 53.3005C67.8621 53.3005 67.9122 53.3002 67.9622 53.2997V53.3001H71.2632V59.1521H67.9621V59.1519C67.9121 59.1523 67.8621 59.1524 67.812 59.1524C56.293 59.1524 46.9551 49.7809 46.9551 38.2205C46.9551 26.6601 56.293 17.2886 67.812 17.2886C67.8621 17.2886 67.9121 17.2887 67.9621 17.2891V17.2882Z" fill="black"/>
<path d="M71.2632 17.2882H72.4387V16.1128H71.2632V17.2882ZM67.9621 17.2882V16.1128H66.7867V17.2882H67.9621ZM71.2632 23.1401V24.3156H72.4387V23.1401H71.2632ZM67.9622 23.1401V21.9647H66.7867V23.1401H67.9622ZM67.9622 23.1412L67.9506 24.3166L69.1376 24.3283V23.1412H67.9622ZM67.9622 53.2997H69.1376V52.1127L67.9506 52.1244L67.9622 53.2997ZM67.9622 53.3001H66.7867V54.4756H67.9622V53.3001ZM71.2632 53.3001H72.4387V52.1247H71.2632V53.3001ZM71.2632 59.1521V60.3275H72.4387V59.1521H71.2632ZM67.9621 59.1521H66.7867V60.3275H67.9621V59.1521ZM67.9621 59.1519H69.1376V57.9681L67.9538 57.9765L67.9621 59.1519ZM67.9621 17.2891L67.9538 18.4645L69.1376 18.4729V17.2891H67.9621ZM71.2632 16.1128H67.9621V18.4636H71.2632V16.1128ZM72.4387 23.1401V17.2882H70.0878V23.1401H72.4387ZM67.9622 24.3156H71.2632V21.9647H67.9622V24.3156ZM69.1376 23.1412V23.1401H66.7867V23.1412H69.1376ZM67.812 24.3159C67.8582 24.3159 67.9044 24.3162 67.9506 24.3166L67.9738 21.9659C67.9199 21.9653 67.866 21.9651 67.812 21.9651V24.3159ZM53.9825 38.2205C53.9825 30.5179 60.1974 24.3159 67.812 24.3159V21.9651C58.8921 21.9651 51.6316 29.2266 51.6316 38.2205H53.9825ZM67.812 52.125C60.1974 52.125 53.9825 45.9231 53.9825 38.2205H51.6316C51.6316 47.2144 58.8921 54.4759 67.812 54.4759V52.125ZM67.9506 52.1244C67.9044 52.1248 67.8582 52.125 67.812 52.125V54.4759C67.866 54.4759 67.9199 54.4757 67.9737 54.4751L67.9506 52.1244ZM69.1376 53.3001V53.2997H66.7867V53.3001H69.1376ZM71.2632 52.1247H67.9622V54.4756H71.2632V52.1247ZM72.4387 59.1521V53.3001H70.0878V59.1521H72.4387ZM67.9621 60.3275H71.2632V57.9766H67.9621V60.3275ZM66.7867 59.1519V59.1521H69.1376V59.1519H66.7867ZM67.812 60.3279C67.8648 60.3279 67.9176 60.3277 67.9705 60.3273L67.9538 57.9765C67.9066 57.9768 67.8593 57.977 67.812 57.977V60.3279ZM45.7796 38.2205C45.7796 50.4261 55.6399 60.3279 67.812 60.3279V57.977C56.9462 57.977 48.1305 49.1357 48.1305 38.2205H45.7796ZM67.812 16.1131C55.6399 16.1131 45.7796 26.0149 45.7796 38.2205H48.1305C48.1305 27.3053 56.9462 18.464 67.812 18.464V16.1131ZM67.9704 16.1137C67.9177 16.1133 67.8648 16.1131 67.812 16.1131V18.464C67.8593 18.464 67.9066 18.4642 67.9538 18.4645L67.9704 16.1137ZM66.7867 17.2882V17.2891H69.1376V17.2882H66.7867Z" fill="black" mask="url(#path-16-outside-3)"/>
<path d="M1 20.4787C1.8242 17.2763 6.36828 10.2841 17.951 7.9344C16.4858 10.661 16.0444 14.7528 26.0007 9.30686C25.671 11.0911 26.6875 13.8799 33.391 10.7617C40.0945 7.64344 36.6603 6.57219 33.7207 7.60501C32.5296 8.02351 31.5338 10.7617 35.2043 10.7617C38.8747 10.7617 41.4957 8.98662 42.3473 8.0991C41.34 8.98662 40.0615 10.7617 43.0067 10.7617C45.9518 10.7617 46.6332 8.98662 46.6057 8.0991C46.5691 7.41287 45.809 4.55817 25.6436 4.55815C16.6964 4.51241 17.951 1.48386 28.6931 1.48386C41.9078 0.834229 69.2109 0.480931 67.9799 2.82887C67.3755 3.98176 65.2967 3.81705 64.1337 2.66418M47.5947 10.1304C48.364 8.77622 50.3421 6.19416 52.1003 6.69923C52.0208 8.43768 53.1567 11.6401 57.8972 7.4678C58.3093 8.61152 62.4853 10.2127 75.8922 7.4678M57.8972 5.19973C58.0804 4.87034 58.2763 4.80995 58.6939 5.00759" stroke="black" stroke-width="1.6792" stroke-linecap="round" stroke-linejoin="round"/>
</svg>
