<svg width="24" height="24" viewBox="0 0 24 24" fill="none" xmlns="http://www.w3.org/2000/svg">
<path fill-rule="evenodd" clip-rule="evenodd" d="M20.9793 13.1509V13.1512V13.1514C20.9739 14.0305 20.9686 14.9103 20.9913 15.7883C21.0457 18.0222 19.6422 19.7485 17.8543 20.5173C17.1363 20.8256 16.3819 20.9888 15.6022 20.9888C14.9517 20.9897 14.301 20.9927 13.6501 20.9958H13.6496C11.8585 21.0041 10.0666 21.0124 8.27662 20.9779C6.43796 20.9416 4.92569 20.1728 3.84136 18.6569C3.27199 17.859 3 16.9524 3 15.9696V8.17256C3 6.05103 4.03356 4.56778 5.86859 3.60312C6.66643 3.18606 7.53318 3.00836 8.43618 3.00474C9.11267 3.00474 9.78945 3.00355 10.4664 3.00237C12.1591 2.99941 13.8526 2.99645 15.5442 3.01199C17.3829 3.0265 18.9169 3.73004 20.0484 5.20967C20.6794 6.03652 20.984 6.98668 20.984 8.03112V11.9986C20.984 12.3824 20.9817 12.7666 20.9793 13.1509ZM4.33819 11.9986V15.9878C4.33819 16.5825 4.476 17.141 4.78426 17.6451C5.59298 18.9688 6.81512 19.6143 8.33102 19.6397C10.2776 19.6687 12.2265 19.6606 14.1758 19.6524C14.6634 19.6504 15.1509 19.6484 15.6385 19.6469C16.2369 19.6469 16.8171 19.5236 17.3575 19.2661C18.8299 18.5626 19.6531 17.442 19.6458 15.7593C19.6357 13.9569 19.638 12.1545 19.6402 10.3521C19.6412 9.57968 19.6422 8.80722 19.6422 8.03475C19.6422 7.30581 19.4355 6.63853 19.0039 6.05103C18.1698 4.92318 17.0166 4.36832 15.6385 4.35381C13.7804 4.33162 11.9224 4.33701 10.0643 4.34239C9.49257 4.34405 8.92086 4.3457 8.34915 4.34656C7.83055 4.34656 7.33009 4.45173 6.84413 4.63305C5.50957 5.12989 4.26929 6.3883 4.32731 8.24146C4.35778 9.11991 4.35092 9.99658 4.34407 10.8727V10.8727C4.34113 11.2481 4.33819 11.6233 4.33819 11.9986ZM12.0119 15.843C9.67282 15.843 7.78702 13.979 7.78339 11.658C7.77976 9.37325 9.68007 7.50196 12.0047 7.50196C14.3366 7.49833 16.2296 9.366 16.2332 11.6689C16.2332 13.9681 14.3438 15.8394 12.0119 15.843ZM12.0119 14.5012C13.604 14.5012 14.895 13.2283 14.8914 11.6616C14.8878 10.1094 13.5967 8.84015 12.0119 8.84015C10.4199 8.84015 9.12159 10.1058 9.12159 11.6689C9.12521 13.2355 10.4199 14.5048 12.0119 14.5012ZM17.6113 7.16136C17.6113 6.65002 17.2124 6.23297 16.7228 6.23297C16.2332 6.23297 15.8343 6.65365 15.8379 7.16499C15.8379 7.66545 16.2332 8.07888 16.7155 8.08251C17.2051 8.08613 17.6076 7.67271 17.6113 7.16136Z" fill="black"/>
<path d="M20.9793 13.1509L20.6578 13.1489V13.1509H20.9793ZM20.9793 13.1514L21.3008 13.1534V13.1514H20.9793ZM20.9913 15.7883L21.3127 15.7805L21.3126 15.78L20.9913 15.7883ZM17.8543 20.5173L17.9811 20.8127L17.9813 20.8126L17.8543 20.5173ZM15.6022 20.9888L15.6022 20.6673L15.6018 20.6673L15.6022 20.9888ZM13.6501 20.9958L13.6501 21.3173L13.6516 21.3173L13.6501 20.9958ZM13.6496 20.9958L13.6496 20.6743L13.6481 20.6743L13.6496 20.9958ZM8.27662 20.9779L8.27028 21.2993L8.27041 21.2993L8.27662 20.9779ZM3.84136 18.6569L3.57967 18.8436L3.57988 18.8439L3.84136 18.6569ZM5.86859 3.60312L5.71966 3.31821L5.719 3.31856L5.86859 3.60312ZM8.43618 3.00474L8.43618 2.68325L8.43489 2.68325L8.43618 3.00474ZM10.4664 3.00237L10.4669 3.32385L10.4664 3.00237ZM15.5442 3.01199L15.5413 3.33346L15.5417 3.33346L15.5442 3.01199ZM20.0484 5.20967L20.3039 5.01464L20.3037 5.01439L20.0484 5.20967ZM4.78426 17.6451L5.05859 17.4775L5.05853 17.4774L4.78426 17.6451ZM8.33102 19.6397L8.32563 19.9611L8.32622 19.9611L8.33102 19.6397ZM14.1758 19.6524L14.1745 19.331L14.1745 19.331L14.1758 19.6524ZM15.6385 19.6469L15.6385 19.3254L15.6375 19.3254L15.6385 19.6469ZM17.3575 19.2661L17.4958 19.5564L17.4961 19.5562L17.3575 19.2661ZM19.6458 15.7593L19.9673 15.7579L19.9673 15.7575L19.6458 15.7593ZM19.6402 10.3521L19.9617 10.3526L19.9617 10.3526L19.6402 10.3521ZM19.0039 6.05103L19.263 5.86071L19.2624 5.85987L19.0039 6.05103ZM15.6385 4.35381L15.6347 4.67527L15.6351 4.67528L15.6385 4.35381ZM10.0643 4.34239L10.0652 4.66387L10.0643 4.34239ZM8.34915 4.34656L8.34915 4.66804L8.34963 4.66804L8.34915 4.34656ZM6.84413 4.63305L6.9563 4.93434L6.95652 4.93425L6.84413 4.63305ZM4.32731 8.24146L4.00599 8.25152L4.00602 8.2526L4.32731 8.24146ZM4.34407 10.8727L4.02258 10.8702V10.8727H4.34407ZM4.34407 10.8727L4.66555 10.8752V10.8727H4.34407ZM7.78339 11.658L8.10488 11.6575L8.10488 11.6575L7.78339 11.658ZM12.0119 15.843L12.0119 16.1645L12.0124 16.1645L12.0119 15.843ZM12.0047 7.50196L12.0047 7.82344L12.0052 7.82344L12.0047 7.50196ZM16.2332 11.6689L16.5547 11.6689L16.5547 11.6683L16.2332 11.6689ZM14.8914 11.6616L15.2129 11.6609L15.2129 11.6609L14.8914 11.6616ZM12.0119 14.5012L12.0119 14.1797L12.0112 14.1797L12.0119 14.5012ZM9.12159 11.6689L8.8001 11.6689L8.8001 11.6696L9.12159 11.6689ZM17.6113 7.16136L17.9328 7.16364V7.16136H17.6113ZM15.8379 7.16499L16.1594 7.16499L16.1594 7.16271L15.8379 7.16499ZM16.7155 8.08251L16.7131 8.40398L16.7131 8.40398L16.7155 8.08251ZM21.3008 13.1512V13.1509H20.6578V13.1512H21.3008ZM21.3008 13.1514V13.1512H20.6578V13.1514H21.3008ZM21.3126 15.78C21.2901 14.908 21.2954 14.0333 21.3008 13.1534L20.6578 13.1494C20.6525 14.0277 20.647 14.9126 20.6699 15.7966L21.3126 15.78ZM17.9813 20.8126C19.8688 20.001 21.3708 18.1671 21.3127 15.7805L20.6699 15.7961C20.7206 17.8774 19.4156 19.496 17.7273 20.222L17.9813 20.8126ZM15.6022 21.3102C16.4278 21.3102 17.2252 21.1372 17.9811 20.8127L17.7275 20.2219C17.0473 20.5139 16.336 20.6673 15.6022 20.6673V21.3102ZM13.6516 21.3173C14.3025 21.3142 14.9528 21.3112 15.6027 21.3102L15.6018 20.6673C14.9507 20.6682 14.2994 20.6713 13.6486 20.6743L13.6516 21.3173ZM13.6496 21.3173H13.6501V20.6743H13.6496V21.3173ZM8.27041 21.2993C10.0649 21.334 11.8607 21.3256 13.651 21.3173L13.6481 20.6743C11.8564 20.6826 10.0683 20.6909 8.28283 20.6564L8.27041 21.2993ZM3.57988 18.8439C4.72485 20.4446 6.33286 21.2611 8.27028 21.2993L8.28296 20.6565C6.54306 20.6221 5.12654 19.901 4.10283 18.4699L3.57988 18.8439ZM2.67852 15.9696C2.67852 17.015 2.96897 17.9879 3.57967 18.8436L4.10304 18.4701C3.57501 17.7302 3.32148 16.8898 3.32148 15.9696H2.67852ZM2.67852 8.17256V15.9696H3.32148V8.17256H2.67852ZM5.719 3.31856C4.76341 3.8209 3.99982 4.46726 3.47596 5.27981C2.95103 6.09404 2.67852 7.05717 2.67852 8.17256H3.32148C3.32148 7.16642 3.56575 6.32716 4.01636 5.62821C4.46804 4.92759 5.13875 4.34999 6.01819 3.88768L5.719 3.31856ZM8.43489 2.68325C7.48993 2.68705 6.57079 2.8733 5.71966 3.31821L6.01752 3.88802C6.76207 3.49883 7.57643 3.32968 8.43748 3.32622L8.43489 2.68325ZM10.4658 2.68089C9.78884 2.68207 9.11234 2.68325 8.43618 2.68325V3.32622C9.113 3.32622 9.79005 3.32504 10.4669 3.32385L10.4658 2.68089ZM15.5472 2.69052C13.8535 2.67496 12.1582 2.67792 10.4658 2.68089L10.4669 3.32385C12.1599 3.32089 13.8517 3.31794 15.5413 3.33346L15.5472 2.69052ZM20.3037 5.01439C19.1077 3.45032 17.4774 2.70575 15.5467 2.69052L15.5417 3.33346C17.2884 3.34724 18.7261 4.00977 19.793 5.40496L20.3037 5.01439ZM21.3055 8.03112C21.3055 6.91997 20.9799 5.90044 20.3039 5.01464L19.7928 5.40471C20.3788 6.17261 20.6625 7.05339 20.6625 8.03112H21.3055ZM21.3055 11.9986V8.03112H20.6625V11.9986H21.3055ZM21.3008 13.1528C21.3031 12.7687 21.3055 12.3835 21.3055 11.9986H20.6625C20.6625 12.3812 20.6602 12.7644 20.6578 13.1489L21.3008 13.1528ZM4.65968 15.9878V11.9986H4.01671V15.9878H4.65968ZM5.05853 17.4774C4.78493 17.03 4.65968 16.531 4.65968 15.9878H4.01671C4.01671 16.634 4.16708 17.252 4.50999 17.8128L5.05853 17.4774ZM8.3364 19.3182C6.92368 19.2946 5.80641 18.7015 5.05859 17.4775L4.50992 17.8127C5.37955 19.2361 6.70657 19.934 8.32563 19.9611L8.3364 19.3182ZM14.1745 19.331C12.2246 19.3391 10.2788 19.3472 8.33581 19.3182L8.32622 19.9611C10.2764 19.9902 12.2283 19.982 14.1771 19.9739L14.1745 19.331ZM15.6375 19.3254C15.1497 19.3269 14.662 19.3289 14.1745 19.331L14.1771 19.9739C14.6647 19.9719 15.1521 19.9699 15.6395 19.9684L15.6375 19.3254ZM17.2192 18.9759C16.7246 19.2116 16.1919 19.3254 15.6385 19.3254V19.9684C16.2818 19.9684 16.9097 19.8356 17.4958 19.5564L17.2192 18.9759ZM19.3243 15.7607C19.3277 16.5468 19.138 17.1826 18.7897 17.7005C18.4401 18.2204 17.9164 18.6428 17.2189 18.9761L17.4961 19.5562C18.2709 19.186 18.895 18.6962 19.3233 18.0593C19.7529 17.4203 19.9712 16.6545 19.9673 15.7579L19.3243 15.7607ZM19.3188 10.3517C19.3165 12.1539 19.3142 13.9574 19.3243 15.7611L19.9673 15.7575C19.9572 13.9564 19.9594 12.1551 19.9617 10.3526L19.3188 10.3517ZM19.3207 8.03475C19.3207 8.80698 19.3197 9.57924 19.3188 10.3517L19.9617 10.3526C19.9627 9.58012 19.9637 8.80745 19.9637 8.03475H19.3207ZM18.7448 6.24135C19.1337 6.77073 19.3207 7.37053 19.3207 8.03475H19.9637C19.9637 7.2411 19.7373 6.50634 19.263 5.86071L18.7448 6.24135ZM15.6351 4.67528C16.9172 4.68877 17.974 5.19912 18.7454 6.24219L19.2624 5.85987C18.3656 4.64723 17.1159 4.04786 15.6419 4.03234L15.6351 4.67528ZM10.0652 4.66387C11.9237 4.65849 13.7794 4.65312 15.6347 4.67527L15.6423 4.03235C13.7815 4.01013 11.921 4.01553 10.0634 4.02091L10.0652 4.66387ZM8.34963 4.66804C8.9216 4.66719 9.49354 4.66553 10.0652 4.66387L10.0634 4.02091C9.4916 4.02256 8.92012 4.02422 8.34867 4.02507L8.34963 4.66804ZM6.95652 4.93425C7.41259 4.76408 7.87491 4.66804 8.34915 4.66804V4.02507C7.7862 4.02507 7.24759 4.13938 6.73175 4.33185L6.95652 4.93425ZM4.64864 8.2314C4.59597 6.54928 5.71699 5.39571 6.9563 4.93434L6.73197 4.33177C5.30214 4.86407 3.94261 6.22732 4.00599 8.25152L4.64864 8.2314ZM4.66554 10.8752C4.67239 10.0002 4.67935 9.11673 4.64861 8.23032L4.00602 8.2526C4.03621 9.12309 4.02946 9.99294 4.02259 10.8702L4.66554 10.8752ZM4.66555 10.8727V10.8727H4.02258V10.8727H4.66555ZM4.65968 11.9986C4.65968 11.6248 4.6626 11.2508 4.66554 10.8752L4.02259 10.8702C4.01966 11.2453 4.01671 11.6218 4.01671 11.9986H4.65968ZM7.46191 11.6585C7.46582 14.1596 9.49825 16.1645 12.0119 16.1645V15.5215C9.84739 15.5215 8.10822 13.7983 8.10488 11.6575L7.46191 11.6585ZM12.0047 7.18047C9.50753 7.18047 7.45799 9.19085 7.46191 11.6585L8.10488 11.6575C8.10154 9.55566 9.85261 7.82344 12.0047 7.82344V7.18047ZM16.5547 11.6683C16.5508 9.18456 14.5102 7.17658 12.0042 7.18047L12.0052 7.82344C14.1629 7.82009 15.9084 9.54744 15.9118 11.6694L16.5547 11.6683ZM12.0124 16.1645C14.5179 16.1606 16.5547 14.1492 16.5547 11.6689H15.9117C15.9117 13.787 14.1697 15.5182 12.0114 15.5215L12.0124 16.1645ZM14.5699 11.6623C14.5731 13.0462 13.4311 14.1797 12.0119 14.1797V14.8227C13.7769 14.8227 15.2169 13.4103 15.2129 11.6609L14.5699 11.6623ZM12.0119 9.16164C13.4246 9.16164 14.5667 10.2926 14.5699 11.6624L15.2129 11.6609C15.2088 9.92632 13.7688 8.51867 12.0119 8.51867V9.16164ZM9.44307 11.6689C9.44307 10.2902 10.5905 9.16164 12.0119 9.16164V8.51867C10.2493 8.51867 8.8001 9.9214 8.8001 11.6689H9.44307ZM12.0112 14.1797C10.592 14.1829 9.44627 13.0525 9.44307 11.6681L8.8001 11.6696C8.80415 13.4185 10.2478 14.8267 12.0127 14.8227L12.0112 14.1797ZM16.7228 6.55446C17.0216 6.55446 17.2898 6.81407 17.2898 7.16136H17.9328C17.9328 6.48598 17.4031 5.91149 16.7228 5.91149V6.55446ZM16.1594 7.16271C16.1569 6.81592 16.4252 6.55446 16.7228 6.55446V5.91149C16.0412 5.91149 15.5116 6.49138 15.5164 7.16727L16.1594 7.16271ZM16.7179 7.76103C16.4233 7.75881 16.1594 7.50013 16.1594 7.16499H15.5164C15.5164 7.83077 16.0431 8.39894 16.7131 8.40398L16.7179 7.76103ZM17.2898 7.15908C17.2873 7.50572 17.0173 7.76325 16.7179 7.76103L16.7131 8.40398C17.3929 8.40902 17.928 7.83969 17.9327 7.16364L17.2898 7.15908Z" fill="black"/>
</svg>
