<svg width="24" height="24" viewBox="0 0 24 24" fill="none" xmlns="http://www.w3.org/2000/svg">
<path d="M2.29501 11.5727C4.34118 10.465 6.62525 9.54047 8.75937 8.61125C12.4309 7.08925 16.117 5.59364 19.8403 4.20123C20.5647 3.964 21.8664 3.73202 21.994 4.78707C21.9241 6.28053 21.6366 7.76526 21.4394 9.24998C20.9389 12.515 20.3604 15.7689 19.7962 19.0232C19.6019 20.1072 18.2202 20.6683 17.3361 19.9746C15.2115 18.5642 13.0705 17.1674 10.973 15.7243C10.2859 15.0381 10.923 14.0528 11.5367 13.5628C13.2866 11.8679 15.1424 10.4279 16.8009 8.64544C17.2482 7.58374 15.9264 8.4785 15.4904 8.75269C13.0947 10.3752 10.7577 12.0967 8.23196 13.5227C6.9418 14.2206 5.4381 13.6242 4.14852 13.2347C2.99228 12.7642 1.29791 12.2902 2.29489 11.5728L2.29501 11.5727Z" fill="#04090E"/>
</svg>
