<svg width="25" height="24" viewBox="0 0 25 24" fill="none" xmlns="http://www.w3.org/2000/svg">
<path fill-rule="evenodd" clip-rule="evenodd" d="M21.9982 11.9998H17.471C17.9045 9.03418 21.8242 9.4272 21.9982 11.9998ZM3.99303 13.0003L7.38461 13.0003C7.38463 13.0003 7.38464 13.0003 7.38465 13.0003C7.56931 13.0003 7.74266 13.0133 7.90455 13.0375C10.058 13.3596 10.1818 15.6735 7.86996 15.9816C7.70425 16.0037 7.52603 16.0154 7.33515 16.0154C7.33514 16.0154 7.33512 16.0154 7.33511 16.0154L3.99303 16.0154L3.99299 16.0154V13.0003L3.99303 13.0003ZM7.91549 9.98106C10.1155 9.72552 10.3328 7.00011 7.26461 7.00011L3.99303 7.00011L3.99299 7.00011V10.0002H7.57662C7.57663 10.0002 7.57665 10.0002 7.57666 10.0002C7.69429 10.0002 7.80729 9.99362 7.91549 9.98106ZM23.4937 5.50005H15.9935V4H23.4937V5.50005ZM7.94567 4.021C13.4209 4.102 13.5259 9.4662 10.6653 10.9272C14.1274 12.1873 14.2429 18.9885 7.45965 18.9885H0.99292V4.021H7.94567ZM19.5216 7.40512C22.6027 7.40512 24.4853 9.18569 24.8963 11.8303C24.9728 12.3373 25.0043 13.0198 24.9893 13.9709H17.4005C17.2115 16.782 20.4456 17.283 21.5512 16.0004H24.7193C24.2783 17.298 22.6912 19.0005 19.6191 19.0005C16.5455 19.0005 14.4934 17.2725 14.4934 13.3258C14.4934 9.41519 16.379 7.40512 19.5216 7.40512Z" fill="black"/>
</svg>
