<svg width="24" height="24" viewBox="0 0 24 24" fill="none" xmlns="http://www.w3.org/2000/svg">
<path fill-rule="evenodd" clip-rule="evenodd" d="M15.2667 10.0169C15.2667 7.70594 13.3933 5.83252 11.0823 5.83252C8.77131 5.83252 6.8979 7.70594 6.8979 10.0169C6.8979 12.3279 8.77131 14.2013 11.0823 14.2013C13.3933 14.2013 15.2667 12.3279 15.2667 10.0169ZM11.0823 3.83252C14.4978 3.83252 17.2667 6.60137 17.2667 10.0169C17.2667 11.5407 16.7156 12.9357 15.8019 14.0136L19.7388 17.9504L18.3246 19.3647L14.2746 15.3147C13.3427 15.8775 12.2503 16.2013 11.0823 16.2013C7.66674 16.2013 4.8979 13.4325 4.8979 10.0169C4.8979 6.60137 7.66674 3.83252 11.0823 3.83252Z" fill="black"/>
</svg>
