<svg width="1080" height="1080" viewBox="0 0 1080 1080" fill="none" xmlns="http://www.w3.org/2000/svg">
<path d="M974.012 840.751C957.745 878.309 938.491 912.88 916.183 944.665C885.775 987.995 860.878 1017.99 841.69 1034.64C811.946 1061.98 780.077 1075.98 745.951 1076.78C721.452 1076.78 691.907 1069.81 657.516 1055.68C623.011 1041.61 591.302 1034.64 562.308 1034.64C531.9 1034.64 499.288 1041.61 464.405 1055.68C429.469 1069.81 401.325 1077.18 379.807 1077.91C347.082 1079.3 314.463 1064.9 281.904 1034.64C261.123 1016.53 235.13 985.474 203.991 941.48C170.582 894.5 143.115 840.021 121.597 777.912C98.5524 710.826 87 645.864 87 582.972C87 510.929 102.576 448.793 133.774 396.724C158.293 354.899 190.912 321.907 231.737 297.687C272.562 273.467 316.674 261.125 364.178 260.335C390.171 260.335 424.257 268.371 466.616 284.164C508.855 300.01 535.977 308.045 547.868 308.045C556.758 308.045 586.887 298.649 637.963 279.917C686.264 262.545 727.029 255.352 760.425 258.185C850.919 265.485 918.905 301.138 964.119 365.37C883.186 414.381 843.151 483.026 843.948 571.087C844.678 639.679 869.575 696.759 918.507 742.08C940.682 763.115 965.447 779.372 993 790.918C987.025 808.237 980.717 824.826 974.012 840.751V840.751ZM766.467 24.5061C766.467 78.2684 746.814 128.466 707.643 174.929C660.371 230.163 603.193 262.081 541.188 257.044C540.398 250.594 539.94 243.806 539.94 236.673C539.94 185.061 562.421 129.826 602.343 84.6645C622.274 61.7982 647.623 42.7852 678.363 27.6182C709.037 12.6775 738.051 4.41492 765.338 3C766.135 10.1872 766.467 17.3748 766.467 24.5054V24.5061Z" fill="white"/>
</svg>
