<svg xmlns="http://www.w3.org/2000/svg" viewBox="268.5 88.5 38 34.111">
  <defs>
    <style>
      .cls-1 {
        fill: #101010;
        stroke: #101010;
      }

      .cls-2, .cls-3 {
        fill: #57bb00;
      }

      .cls-3 {
        stroke: #57bb00;
      }

      .cls-4 {
        stroke: none;
      }

      .cls-5 {
        fill: none;
      }
    </style>
  </defs>
  <g id="Group_6" data-name="Group 6" transform="translate(269 89)">
    <path id="Union_1" data-name="Union 1" class="cls-1" d="M5.718,32.813c.816-1.174.66-.306,1.851-2.463.663-1.2.359-2.681.133-3.921H3.5a3.5,3.5,0,0,1-3.5-3.5V3.5A3.5,3.5,0,0,1,3.5,0h30A3.5,3.5,0,0,1,37,3.5V22.928a3.5,3.5,0,0,1-3.5,3.5H14.444q-.018.128-.049.259c-.974,4.108-6.865,6.424-8.379,6.424C5.7,33.111,5.578,33.013,5.718,32.813Z"/>
    <g id="Group_5" data-name="Group 5" transform="translate(7.268 11.232)">
      <circle id="Ellipse_2" data-name="Ellipse 2" class="cls-2" cx="2.643" cy="2.643" r="2.643"/>
      <circle id="Ellipse_3" data-name="Ellipse 3" class="cls-2" cx="2.643" cy="2.643" r="2.643" transform="translate(7.929)"/>
      <g id="Ellipse_4" data-name="Ellipse 4" class="cls-3" transform="translate(15.857)">
        <circle class="cls-4" cx="2.643" cy="2.643" r="2.643"/>
        <circle class="cls-5" cx="2.643" cy="2.643" r="2.143"/>
      </g>
    </g>
  </g>
</svg>
